<?xml version="1.0" standalone="no"?>
<!DOCTYPE svg PUBLIC "-//W3C//DTD SVG 20010904//EN"
 "http://www.w3.org/TR/2001/REC-SVG-20010904/DTD/svg10.dtd">
<svg version="1.0" xmlns="http://www.w3.org/2000/svg"
 width="1024.000000pt" height="1024.000000pt" viewBox="0 0 1024.000000 1024.000000"
 preserveAspectRatio="xMidYMid meet">
<metadata>
Created by potrace 1.14, written by Peter Selinger 2001-2017
</metadata>
<g transform="translate(0.000000,1024.000000) scale(0.100000,-0.100000)"
fill="#000000" stroke="none">
<path d="M0 5120 l0 -5120 5120 0 5120 0 0 5120 0 5120 -5120 0 -5120 0 0
-5120z m5388 4566 c-7 -8 -15 -12 -17 -11 -5 6 10 25 20 25 5 0 4 -6 -3 -14z
m-434 -400 c-6 -15 -24 -23 -24 -11 0 8 24 34 28 30 1 -1 0 -10 -4 -19z m50
-38 c-11 -20 -19 -28 -22 -19 -2 7 1 17 8 21 7 4 9 13 5 20 -5 9 -4 11 3 6 7
-4 12 -2 12 5 0 7 3 10 6 7 3 -4 -2 -21 -12 -40z m-375 -35 c0 -16 -1 -16 -9
2 -5 11 -9 16 -9 10 -1 -5 -5 -3 -10 5 -6 8 -7 18 -5 22 8 13 34 -18 33 -39z
m493 29 c3 -11 0 -19 -7 -19 -7 0 -10 8 -7 19 2 10 6 18 7 18 1 0 5 -8 7 -18z
m-42 -23 c-13 -23 -16 -24 -24 -3 -3 8 -2 12 4 9 6 -3 10 1 10 10 0 9 5 13 10
10 7 -4 7 -13 0 -26z m205 21 c-3 -5 1 -10 9 -10 23 0 19 -26 -6 -44 -30 -22
-48 -3 -23 24 10 11 15 20 11 20 -4 0 -4 5 -1 10 3 6 8 10 11 10 3 0 2 -4 -1
-10z m-608 -22 c-3 -8 -6 -5 -6 6 -1 11 2 17 5 13 3 -3 4 -12 1 -19z m569 10
c-1 -7 -7 -22 -14 -33 l-11 -20 -1 20 c0 17 -2 17 -10 5 -5 -8 -10 -10 -10 -4
0 9 32 39 47 43 1 1 0 -5 -1 -11z m76 -40 c-7 -7 -12 -8 -12 -2 0 14 12 26 19
19 2 -3 -1 -11 -7 -17z m535 -50 c-3 -8 -6 -5 -6 6 -1 11 2 17 5 13 3 -3 4
-12 1 -19z m-427 -23 c-13 -15 -30 -12 -30 7 0 5 7 8 15 4 8 -3 15 0 15 6 0 6
3 8 6 5 4 -4 1 -13 -6 -22z m-993 -17 c-3 -8 -6 -5 -6 6 -1 11 2 17 5 13 3 -3
4 -12 1 -19z m-226 -38 c26 -15 24 -27 -6 -32 -28 -6 -40 5 -31 27 6 18 11 18
37 5z m1380 -14 c18 11 8 -13 -13 -32 -12 -10 -18 -13 -14 -6 4 6 2 12 -3 12
-15 0 -14 27 2 33 6 2 14 0 15 -5 2 -4 8 -6 13 -2z m-1428 -16 c3 -11 2 -22
-2 -24 -4 -3 -8 6 -9 20 -2 29 4 31 11 4z m1472 -42 c-6 -16 -4 -20 7 -15 9 3
15 -1 15 -11 0 -21 -14 -40 -41 -54 -20 -10 -20 -9 2 14 l22 25 -22 -1 c-13
-1 -22 4 -20 12 1 6 -5 12 -14 12 -24 0 -11 23 16 27 13 2 26 6 29 8 10 10 12
4 6 -17z m-1519 -33 c2 -11 -1 -13 -9 -6 -7 5 -16 9 -22 9 -5 0 -11 6 -13 14
-2 9 0 8 7 -2 10 -14 16 -7 11 15 -1 6 4 4 11 -2 7 -7 14 -20 15 -28z m1641
-7 c-3 -7 -5 -2 -5 12 0 14 2 19 5 13 2 -7 2 -19 0 -25z m-77 -18 c0 -5 -9
-14 -20 -20 -22 -12 -27 -1 -8 18 14 14 28 16 28 2z m39 -41 c-5 -10 -15 -21
-22 -25 -8 -5 -7 -2 2 9 12 15 11 17 -11 17 -13 0 -30 -6 -38 -12 -8 -7 -7 -4
3 8 10 12 29 20 46 20 25 0 28 -2 20 -17z m-1668 -6 c13 -17 13 -17 -6 -3 -11
8 -22 16 -24 17 -2 2 0 3 6 3 6 0 17 -8 24 -17z m1706 -30 c4 -10 11 -21 16
-24 5 -3 1 -9 -8 -12 -9 -4 -13 -3 -10 3 3 6 -1 10 -11 10 -13 0 -14 3 -4 15
8 9 9 15 2 15 -6 0 -14 -4 -17 -10 -3 -5 -11 -10 -17 -10 -7 0 -6 6 2 15 17
20 39 19 47 -2z m-1856 -40 c13 -16 12 -17 -3 -4 -10 7 -18 15 -18 17 0 8 8 3
21 -13z m1902 -18 c1 -5 -11 -12 -27 -13 -27 -3 -28 -2 -16 13 14 17 40 17 43
0z m22 -35 c3 -5 -1 -10 -9 -10 -8 0 -18 5 -21 10 -3 6 1 10 9 10 8 0 18 -4
21 -10z m30 -40 c-3 -5 -18 -10 -33 -10 -21 0 -24 2 -12 10 20 13 53 13 45 0z
m28 -27 c-7 -2 -19 -2 -25 0 -7 3 -2 5 12 5 14 0 19 -2 13 -5z m-897 -46 c-3
-13 -13 -41 -23 -63 -9 -21 -16 -43 -14 -49 2 -7 -1 -7 -8 0 -5 6 -12 30 -15
55 -5 38 -4 40 3 12 13 -49 24 -53 17 -7 -4 30 -3 34 3 15 5 -14 9 -18 10 -9
1 16 24 69 30 69 2 0 1 -10 -3 -23z m909 13 c13 -5 14 -9 5 -9 -8 0 -24 4 -35
9 -13 5 -14 9 -5 9 8 0 24 -4 35 -9z m12 -26 c-3 -3 -12 -4 -19 -1 -8 3 -5 6
6 6 11 1 17 -2 13 -5z m-926 -73 l-21 -51 22 -25 c16 -19 24 -22 31 -13 6 9 7
8 3 -4 -6 -20 3 -50 13 -44 3 2 6 -6 7 -17 0 -12 4 -30 8 -40 7 -14 5 -16 -9
-10 -12 4 -23 0 -31 -12 -20 -27 -17 -37 5 -25 24 12 42 13 22 1 -7 -5 -15
-28 -17 -51 -2 -23 -9 -49 -15 -59 -8 -12 -9 -7 -4 20 3 21 0 50 -9 70 -7 19
-12 44 -11 56 1 12 -2 20 -6 17 -4 -2 -16 9 -25 25 -11 18 -37 38 -65 51 -43
18 -55 19 -121 9 -40 -6 -81 -12 -90 -12 -10 -1 -18 -5 -18 -9 0 -4 -4 -8 -10
-8 -22 0 -140 -90 -209 -160 -80 -81 -121 -141 -187 -270 -24 -47 -43 -82 -44
-79 -1 16 36 91 85 175 100 169 350 393 412 369 8 -2 11 -1 8 4 -6 11 12 18
70 27 22 3 43 11 47 18 6 8 8 8 8 0 0 -7 17 -15 37 -19 21 -4 48 -19 65 -37
15 -16 28 -26 28 -20 0 18 -69 71 -108 81 -53 15 -161 -8 -247 -51 -98 -50
-236 -190 -320 -327 -21 -34 -40 -61 -42 -61 -6 0 53 104 89 157 124 183 381
341 519 319 25 -4 39 -2 42 7 3 6 6 3 7 -8 l1 -20 9 20 c8 19 9 19 9 -1 1 -12
8 -25 16 -28 12 -4 21 7 35 40 11 25 20 51 21 57 0 9 2 9 5 1 3 -6 -4 -34 -15
-63z m944 39 c3 -6 -1 -7 -9 -4 -18 7 -21 14 -7 14 6 0 13 -4 16 -10z m-887
-85 c-6 -14 -13 -23 -15 -21 -5 5 15 46 22 46 3 0 -1 -11 -7 -25z m-1304 -24
c-2 -3 -12 3 -22 13 -16 17 -16 18 5 5 12 -7 20 -15 17 -18z m2226 5 c0 -3 -4
-8 -10 -11 -5 -3 -10 -1 -10 4 0 6 5 11 10 11 6 0 10 -2 10 -4z m-80 -51 c-30
-7 -68 -16 -85 -20 -16 -4 -28 -5 -24 -2 8 10 111 36 139 35 14 0 0 -6 -30
-13z m-1027 -1 c-7 -3 -17 -21 -23 -40 -12 -34 -13 -35 -31 -18 -29 26 -22 3
11 -36 27 -32 29 -33 30 -12 0 30 27 82 43 82 8 0 7 4 -3 10 -8 5 -10 10 -4
10 16 0 35 -25 26 -34 -4 -4 0 -6 8 -4 8 2 14 -3 12 -10 -1 -8 2 -11 7 -8 12
8 30 -16 37 -45 7 -38 5 -171 -4 -203 -12 -45 -31 -44 -27 1 1 21 0 28 -2 16
-8 -40 -19 -25 -33 45 -7 37 -15 73 -18 81 -4 10 -1 12 8 6 9 -5 11 -4 6 4 -4
6 -12 8 -18 5 -6 -4 -17 1 -25 11 -7 11 -13 15 -13 10 0 -4 -9 0 -19 9 -11 10
-25 15 -32 10 -8 -4 -10 -3 -5 4 4 7 2 12 -3 12 -15 0 -14 57 2 64 6 4 -4 4
-23 1 -32 -5 -33 -4 -15 9 11 8 23 12 27 10 5 -3 8 0 8 5 0 6 19 11 43 10 23
0 37 -3 30 -5z m-92 -82 c3 -17 2 -29 -2 -26 -5 3 -9 16 -9 29 0 13 -5 26 -10
28 -6 3 -5 4 2 3 7 -1 15 -17 19 -34z m929 28 c-8 -5 -19 -10 -25 -10 -5 0 -3
5 5 10 8 5 20 10 25 10 6 0 3 -5 -5 -10z m-2095 -88 c-3 -3 -11 0 -18 7 -9 10
-8 11 6 5 10 -3 15 -9 12 -12z m1455 -49 c0 -51 -15 -39 -18 15 -2 34 0 43 8
32 5 -8 10 -30 10 -47z m-1449 20 c13 -16 12 -17 -3 -4 -10 7 -18 15 -18 17 0
8 8 3 21 -13z m1224 -5 c15 -7 24 -17 21 -25 -3 -8 -2 -11 4 -8 12 7 33 -32
24 -47 -4 -6 -3 -8 3 -5 6 4 20 -30 34 -85 17 -66 29 -92 41 -94 20 -2 33 37
15 48 -14 8 -19 48 -6 48 5 0 9 -6 9 -13 0 -7 5 -18 12 -25 14 -14 20 -45 7
-36 -5 3 -9 -4 -9 -15 0 -25 13 -27 30 -6 7 9 10 25 6 41 -5 17 -3 23 4 19 29
-18 -4 -85 -42 -85 -18 0 -19 -5 -13 -42 4 -24 11 -51 16 -60 11 -20 85 -79
119 -95 30 -14 217 -83 224 -83 3 0 -14 29 -39 65 -24 36 -47 82 -51 102 -4
21 -13 51 -21 67 -10 20 -11 26 -2 21 16 -10 8 2 -47 81 -43 61 -106 124 -124
124 -6 0 -10 -15 -10 -34 0 -19 -5 -38 -11 -42 -7 -4 -9 0 -5 14 4 11 7 42 8
68 0 27 4 41 7 32 3 -9 39 -40 78 -68 73 -51 139 -123 173 -189 10 -20 32 -83
50 -141 18 -58 39 -113 48 -123 21 -24 9 -32 -20 -13 -12 8 -84 38 -158 66
-74 28 -155 63 -180 78 -45 28 -45 28 -85 11 -49 -21 -141 -40 -360 -74 -93
-15 -212 -35 -264 -46 -51 -10 -108 -19 -126 -19 l-33 0 31 33 c18 18 36 31
41 28 5 -2 6 1 2 7 -4 6 7 37 23 69 17 32 30 54 31 50 0 -4 -7 -22 -16 -38 -8
-17 -14 -33 -11 -35 2 -2 19 26 38 63 18 38 58 94 89 126 65 70 146 131 160
122 5 -3 10 -2 10 4 0 6 10 15 21 22 17 9 23 8 30 -2 7 -11 9 -10 9 5 0 15 3
16 15 6 9 -7 19 -10 22 -6 4 4 1 11 -7 16 -13 8 -12 10 2 10 9 0 21 -8 27 -17
5 -10 13 -15 17 -11 4 4 2 14 -5 22 -9 11 -7 14 14 14 13 0 22 -4 19 -9 -10
-17 9 -9 22 9 12 15 13 14 14 -11 0 -20 4 -26 13 -20 6 4 19 8 27 10 10 1 9
-3 -4 -13 -11 -8 -16 -14 -10 -14 5 0 15 -9 22 -21 10 -15 10 -19 1 -14 -13 9
-6 -8 16 -35 7 -8 15 -28 19 -44 9 -37 34 -57 62 -50 12 3 25 1 28 -5 4 -6 3
-11 -3 -11 -6 0 -7 -7 -4 -17 4 -11 3 -14 -5 -9 -7 4 -12 2 -12 -4 0 -12 38
-4 55 12 6 6 4 7 -8 2 -13 -5 -17 -2 -15 12 4 24 -68 249 -90 282 -25 39 -73
54 -128 42 -58 -13 -157 -62 -206 -101 -20 -16 -40 -29 -43 -29 -4 0 6 10 22
23 123 101 264 149 338 115z m-1180 -26 c-3 -3 -11 0 -18 7 -9 10 -8 11 6 5
10 -3 15 -9 12 -12z m52 -8 c-3 -3 -12 -4 -19 -1 -8 3 -5 6 6 6 11 1 17 -2 13
-5z m-142 -33 c-3 -5 5 -12 17 -14 20 -4 19 -4 -4 -6 -27 -1 -35 8 -21 22 9
10 15 8 8 -2z m1442 -48 c-3 -10 -5 -4 -5 12 0 17 2 24 5 18 2 -7 2 -21 0 -30z
m-1447 -13 c12 -8 11 -10 -7 -10 -12 0 -25 5 -28 10 -8 13 15 13 35 0z m26
-65 c-8 -7 -13 -15 -9 -19 4 -4 -1 -4 -11 0 -12 5 -14 9 -6 14 7 4 -3 10 -24
14 -36 7 -60 26 -32 26 9 0 16 4 16 10 0 5 19 0 41 -12 36 -18 39 -23 25 -33z
m1415 22 c-10 -9 -11 -8 -5 6 3 10 9 15 12 12 3 -3 0 -11 -7 -18z m-54 -29
c-3 -8 -6 -5 -6 6 -1 11 2 17 5 13 3 -3 4 -12 1 -19z m-1412 -9 c-4 -5 -12 -9
-18 -8 -9 0 -8 2 1 6 6 2 9 10 6 15 -4 7 -2 8 5 4 6 -4 9 -12 6 -17z m895 17
c0 -2 -8 -10 -17 -17 -16 -13 -17 -12 -4 4 13 16 21 21 21 13z m-891 -61 c1 6
4 6 9 0 4 -6 18 -16 32 -23 l25 -11 -27 5 c-34 7 -37 -9 -5 -24 20 -10 20 -11
-13 -12 -29 -1 -32 -3 -15 -10 17 -7 15 -9 -12 -9 -17 -1 -35 3 -38 9 -4 6 1
7 12 4 16 -5 16 -4 -1 10 -11 9 -14 16 -7 16 22 0 1 20 -22 21 -17 0 -14 4 13
14 19 7 31 14 27 14 -5 1 -5 6 -1 13 5 8 10 6 15 -8 4 -10 8 -14 8 -9z m861
21 c0 -2 -8 -10 -17 -17 -16 -13 -17 -12 -4 4 13 16 21 21 21 13z m-189 -53
c-12 -20 -14 -14 -5 12 4 9 9 14 11 11 3 -2 0 -13 -6 -23z m700 10 c13 -16 12
-17 -3 -4 -15 11 -19 11 -24 -3 -3 -9 -10 -13 -16 -10 -7 4 15 30 28 34 1 0 8
-8 15 -17z m-576 -49 c-41 -67 -55 -83 -30 -34 19 37 54 90 60 90 2 0 -12 -25
-30 -56z m-765 -47 c8 -3 -3 -4 -25 -2 -66 5 -71 7 -45 14 14 5 32 5 40 1 8
-4 22 -10 30 -13z m-5 -25 c-24 -8 -27 -44 -5 -54 8 -4 -7 -6 -35 -6 -40 0
-44 2 -20 7 35 7 40 31 10 48 -18 11 -15 12 25 12 29 -1 38 -3 25 -7z m5 -76
c0 -2 -11 -6 -25 -8 -13 -3 -22 -1 -19 3 5 9 44 13 44 5z m20 -40 c0 -2 -16
-6 -35 -8 -19 -2 -35 0 -35 4 0 4 16 8 35 8 19 0 35 -2 35 -4z m-35 -22 c13
-5 14 -8 3 -15 -7 -5 -21 -9 -32 -9 -15 0 -16 3 -6 15 14 17 13 17 35 9z
m-2097 -21 c6 -19 -25 -16 -32 3 -4 11 -1 14 11 12 9 -2 18 -9 21 -15z m2059
-29 c-3 -3 -12 -4 -19 -1 -8 3 -5 6 6 6 11 1 17 -2 13 -5z m21 -16 c-2 -9 6
-12 22 -10 33 5 22 -5 -12 -12 -24 -4 -28 2 -19 32 3 9 11 0 9 -10z m1720 3
c1 -1 4 -1 8 0 3 0 17 -7 31 -16 14 -9 22 -12 19 -6 -4 6 -3 11 3 11 5 0 12
-4 16 -10 3 -5 12 -7 20 -3 17 6 20 -8 6 -22 -20 -20 -41 -133 -41 -220 0 -62
-6 -112 -21 -160 -40 -136 -46 -161 -52 -210 l-6 -50 50 -24 c28 -13 76 -48
107 -78 31 -31 50 -50 41 -44 -9 6 -18 8 -21 6 -3 -3 -22 13 -42 35 -20 22
-36 38 -36 35 0 -3 -20 8 -44 25 -25 16 -46 30 -49 30 -2 0 -4 -14 -5 -32 -2
-74 -25 -217 -43 -275 -11 -35 -45 -100 -75 -145 l-54 -83 5 80 c8 125 60 563
68 571 4 4 7 -6 7 -22 l1 -29 19 35 c11 19 19 31 20 26 0 -12 30 14 30 26 0 6
-8 4 -17 -3 -9 -8 -5 2 9 21 35 46 78 139 78 168 0 12 -6 22 -14 22 -8 0 -64
-17 -126 -39 -61 -21 -105 -33 -98 -27 16 15 156 69 203 79 12 3 7 5 -12 6
-28 1 -33 5 -33 25 0 57 12 85 41 95 17 6 27 6 24 2 -3 -5 2 -11 10 -15 8 -3
15 -16 16 -28 0 -13 3 -17 6 -10 15 38 -48 112 -95 112 -66 0 -161 -94 -169
-167 -2 -21 -7 -40 -10 -43 -3 -3 -4 7 -1 21 3 15 0 26 -6 26 -6 0 -11 -10
-12 -21 -2 -43 -15 -182 -19 -206 -3 -14 -7 -54 -10 -90 -5 -68 -23 -107 -20
-43 1 21 5 117 9 213 12 316 18 400 27 394 5 -3 9 0 9 6 0 7 12 9 35 4 19 -3
52 -7 74 -7 22 -1 38 -5 35 -9 -3 -4 0 -8 6 -8 8 0 9 7 5 18 -14 33 -10 46 15
52 20 6 59 6 78 1z m-1039 -71 c0 -8 -6 0 -14 19 -8 18 -15 36 -15 40 1 13 29
-45 29 -59z m-719 40 c-12 -8 -12 -10 -1 -10 8 0 12 -3 8 -6 -9 -9 -28 6 -22
17 4 5 12 9 18 9 7 0 6 -4 -3 -10z m190 5 c0 -2 -22 -16 -50 -30 -27 -14 -50
-23 -50 -20 0 2 21 16 48 29 53 28 52 28 52 21z m820 -15 c0 -5 -5 -10 -11
-10 -5 0 -7 5 -4 10 3 6 8 10 11 10 2 0 4 -4 4 -10z m-10 -45 c8 -2 15 -4 15
-5 0 -1 37 -3 83 -5 80 -2 126 -14 66 -16 -20 -1 -13 -4 20 -10 54 -9 133 -53
150 -84 6 -11 19 -31 29 -44 9 -13 17 -31 17 -40 -1 -9 -7 -4 -17 14 -42 81
-114 124 -204 125 -60 0 -188 -29 -243 -55 -37 -18 -69 -70 -87 -144 -5 -23
-13 -41 -15 -38 -3 3 2 31 10 63 8 33 20 95 27 139 6 44 16 85 21 90 9 9 7
-15 -8 -95 -4 -21 -3 -22 6 -8 6 10 18 22 28 28 16 11 16 11 0 6 -10 -3 -18
-1 -18 4 0 9 21 14 41 12 4 -1 4 8 1 20 -3 14 -1 19 6 15 6 -4 9 0 7 10 -4 27
5 35 29 28 11 -3 28 -8 36 -10z m-920 1 c0 -2 -7 -7 -16 -10 -8 -3 -12 -2 -9
4 6 10 25 14 25 6z m647 -43 c-3 -10 -5 -4 -5 12 0 17 2 24 5 18 2 -7 2 -21 0
-30z m97 -32 c14 -15 16 -27 9 -57 l-7 -39 -6 40 c-3 26 -10 39 -18 37 -8 -1
-11 2 -7 8 3 5 -1 10 -9 10 -22 0 -36 -32 -36 -80 0 -29 -4 -39 -12 -34 -7 4
-8 3 -4 -4 13 -22 26 -12 26 21 0 44 15 67 25 38 3 -12 11 -18 17 -15 7 5 9 0
6 -14 -4 -12 -2 -19 3 -16 9 5 7 -17 -4 -46 -11 -29 -16 -94 -9 -104 4 -6 5
-49 2 -96 l-6 -85 -8 73 c-5 40 -13 75 -19 79 -7 4 -8 -12 -3 -47 6 -48 6 -51
-9 -36 -22 22 -28 20 -15 -3 5 -11 10 -30 10 -42 0 -64 210 -396 329 -519 l82
-85 -6 65 c-3 36 -10 166 -15 289 -6 124 -11 225 -13 226 -31 20 -246 209
-251 221 -10 26 -6 30 10 9 18 -24 26 -23 35 2 6 15 8 15 8 2 1 -9 18 -29 39
-45 20 -15 69 -59 108 -96 l71 -69 8 -246 c4 -135 10 -280 14 -322 5 -42 6
-78 4 -80 -2 -3 -26 20 -54 50 -129 137 -205 230 -246 301 -26 43 -50 75 -56
71 -6 -3 -7 -1 -3 5 3 6 -14 50 -39 99 -41 78 -46 96 -48 158 -1 39 -6 73 -10
76 -5 4 5 22 22 41 36 41 37 46 14 44 -14 -1 -18 6 -16 29 3 46 -13 9 -22 -48
-12 -89 -14 -43 -2 62 7 56 15 100 17 97 3 -3 5 11 3 32 -2 20 0 32 3 25 3 -7
13 -3 29 13 29 29 37 30 59 5z m-3262 -73 c-8 -8 -9 -4 -5 13 4 13 8 18 11 10
2 -7 -1 -18 -6 -23z m3621 -49 c53 -14 41 -22 -14 -10 -93 22 -199 11 -221
-23 -6 -8 -8 -8 -8 0 0 43 136 62 243 33z m490 -6 c-7 -2 -19 -2 -25 0 -7 3
-2 5 12 5 14 0 19 -2 13 -5z m-478 -31 c69 -22 187 -73 181 -79 -2 -2 -22 5
-44 16 -98 50 -312 91 -351 66 -6 -3 -11 -23 -11 -43 0 -36 0 -36 -15 -14 -14
19 -14 24 0 46 9 14 24 27 33 30 30 9 146 -4 207 -22z m432 -4 c-3 -8 -6 -5
-6 6 -1 11 2 17 5 13 3 -3 4 -12 1 -19z m-225 -61 c10 -92 21 -273 16 -267 -3
3 -11 16 -18 29 -9 18 -9 22 0 16 9 -5 11 0 7 21 -3 16 -9 70 -12 119 -3 50
-9 106 -12 125 -3 19 -2 31 3 27 5 -4 12 -36 16 -70z m1608 25 c0 -15 -2 -15
-10 -2 -6 10 -10 11 -10 3 0 -7 -4 -13 -8 -13 -17 0 -8 26 10 27 11 1 18 -5
18 -15z m-1483 -34 c-3 -8 -6 -5 -6 6 -1 11 2 17 5 13 3 -3 4 -12 1 -19z
m-700 -60 c-3 -8 -6 -5 -6 6 -1 11 2 17 5 13 3 -3 4 -12 1 -19z m710 -33 c-4
-47 -17 -74 -17 -38 0 28 11 83 17 83 3 0 3 -20 0 -45z m-957 5 c0 -11 -4 -20
-9 -20 -5 0 -7 9 -4 20 3 11 7 20 9 20 2 0 4 -9 4 -20z m784 -41 c23 -27 40
-88 17 -63 -78 87 -83 94 -63 94 11 0 32 -14 46 -31z m-828 8 c8 3 14 3 14 0
0 -14 -30 -14 -41 1 -11 14 -11 15 0 5 7 -6 20 -9 27 -6z m1071 7 c-3 -3 -12
-4 -19 -1 -8 3 -5 6 6 6 11 1 17 -2 13 -5z m-780 -41 c-3 -10 -5 -4 -5 12 0
17 2 24 5 18 2 -7 2 -21 0 -30z m743 -8 c-11 -16 -25 -29 -31 -27 -6 1 -8 -2
-4 -8 3 -5 -1 -22 -9 -37 -14 -26 -15 -26 -16 -6 0 12 4 24 9 27 4 3 6 17 3
31 -3 19 -1 24 10 20 8 -3 21 2 29 12 13 16 12 17 -3 4 -16 -12 -18 -11 -18 3
0 11 8 15 25 14 l24 -2 -19 -31z m-890 10 c-7 -9 -15 -13 -17 -11 -7 7 7 26
19 26 6 0 6 -6 -2 -15z m-130 1 c0 -7 -40 -14 -44 -7 -3 4 6 8 20 9 13 1 24 0
24 -2z m380 -62 c0 -18 -5 -24 -22 -23 -21 0 -21 1 -4 8 16 6 17 8 4 13 -10 4
-19 -2 -27 -18 -11 -26 -37 -34 -27 -9 3 8 1 15 -5 15 -6 0 -9 6 -6 13 2 6 10
11 16 10 6 -2 11 1 11 6 0 5 3 18 6 28 5 15 4 15 -5 3 -5 -8 -13 -11 -18 -7
-4 5 -1 12 7 17 21 13 70 -26 70 -56z m-442 45 c-2 -5 -19 -20 -38 -32 -19
-12 -31 -16 -26 -9 4 6 2 12 -3 12 -6 0 -11 -5 -11 -11 0 -5 -4 -8 -8 -5 -4 2
-14 0 -22 -6 -12 -8 -11 -9 3 -4 12 4 17 2 15 -6 -3 -7 -10 -13 -16 -13 -7 0
-30 -17 -51 -37 -23 -21 -49 -36 -61 -35 -35 2 -18 28 45 68 85 54 138 82 130
70 -3 -6 -1 -11 4 -11 6 0 11 7 11 15 0 8 7 15 16 15 9 0 14 -5 12 -11z m146
-14 c-9 -14 -18 -25 -21 -25 -5 0 5 18 20 38 17 22 18 13 1 -13z m60 -20 c-25
-34 -44 -49 -27 -22 28 43 39 57 46 57 4 0 -4 -16 -19 -35z m-91 -30 c-3 -9
-8 -14 -10 -11 -3 3 -2 9 2 15 9 16 15 13 8 -4z m-202 -42 c-12 -20 -14 -14
-5 12 4 9 9 14 11 11 3 -2 0 -13 -6 -23z m252 -5 c-3 -18 -10 -44 -15 -58 -6
-19 -7 -15 -3 15 3 22 5 48 5 58 0 9 4 17 10 17 5 0 7 -14 3 -32z m267 22 c0
-5 -7 -7 -15 -4 -8 4 -15 8 -15 10 0 2 7 4 15 4 8 0 15 -4 15 -10z m-349 -54
c-8 -30 -19 -52 -22 -50 -9 5 25 104 35 104 2 0 -4 -24 -13 -54z m-40 -23
c-12 -20 -14 -14 -5 12 4 9 9 14 11 11 3 -2 0 -13 -6 -23z m-255 -1 c-3 -5 -5
-58 -5 -118 0 -60 -1 -122 -2 -139 -4 -84 2 -192 15 -248 17 -71 8 -91 -25
-61 -22 19 -22 19 -8 -3 8 -13 18 -23 24 -23 5 0 -1 -6 -15 -14 -21 -11 -28
-11 -43 2 -20 18 -59 135 -46 140 5 2 24 -1 41 -7 17 -6 33 -9 36 -6 6 5 -46
26 -70 28 -12 1 -19 13 -24 44 -8 56 19 126 68 174 l38 37 0 94 c0 84 4 108
17 108 2 0 2 -4 -1 -8z m114 0 c0 -5 -6 -17 -14 -27 -13 -18 -14 -18 -9 8 5
24 23 39 23 19z m317 -44 c-3 -7 -5 -2 -5 12 0 14 2 19 5 13 2 -7 2 -19 0 -25z
m-411 -35 c-10 -26 -18 -8 -9 23 5 21 8 24 11 11 2 -10 1 -25 -2 -34z m67 -5
c-3 -16 -9 -28 -14 -28 -5 0 -9 -10 -9 -22 0 -19 -2 -20 -10 -8 -8 11 -10 5
-8 -22 1 -21 0 -40 -3 -43 -3 -3 -6 13 -7 34 -1 22 3 43 8 46 6 4 8 11 4 16
-3 5 0 8 7 7 6 -2 14 3 17 11 2 8 0 11 -5 8 -5 -3 -10 0 -10 7 0 8 6 12 14 9
7 -3 13 1 13 8 0 7 2 10 4 8 2 -2 2 -16 -1 -31z m306 -18 c11 -24 11 -24 -3
-6 -9 11 -16 24 -16 30 0 12 5 7 19 -24z m-2349 5 c0 -17 -10 -24 -25 -18 -8
2 -12 10 -9 17 6 16 34 17 34 1z m2217 -17 c-3 -8 -6 -5 -6 6 -1 11 2 17 5 13
3 -3 4 -12 1 -19z m1577 -21 c-8 -5 -29 -5 -46 -2 -17 4 -28 3 -25 -1 3 -5 -9
-10 -26 -12 -18 -1 -41 -3 -51 -5 -10 -1 -21 5 -23 13 -3 11 -2 11 4 3 7 -9
18 -9 53 1 48 14 138 17 114 3z m-1827 -44 c-3 -10 -5 -2 -5 17 0 19 2 27 5
18 2 -10 2 -26 0 -35z m1894 20 c13 -16 12 -17 -3 -4 -10 7 -18 15 -18 17 0 8
8 3 21 -13z m-88 0 c-7 -2 -19 -2 -25 0 -7 3 -2 5 12 5 14 0 19 -2 13 -5z
m-63 -13 c-34 -11 -60 -11 -35 0 11 5 29 8 40 8 16 0 15 -2 -5 -8z m-70 -10
c-8 -5 -19 -10 -25 -10 -5 0 -3 5 5 10 8 5 20 10 25 10 6 0 3 -5 -5 -10z m541
-15 c39 -20 160 -108 155 -112 -6 -6 -69 31 -95 55 -62 56 -99 62 -231 43
-102 -15 -179 -21 -150 -11 14 4 44 8 67 9 23 1 45 6 49 12 4 7 0 9 -12 6 -11
-3 -53 -8 -94 -11 -103 -8 -68 12 43 24 116 12 227 6 268 -15z m-1944 -17 c-3
-8 -6 -5 -6 6 -1 11 2 17 5 13 3 -3 4 -12 1 -19z m1353 12 c-8 -5 -19 -10 -25
-10 -5 0 -3 5 5 10 8 5 20 10 25 10 6 0 3 -5 -5 -10z m-1175 -102 c28 -26 47
-48 43 -48 -12 0 -138 129 -138 141 0 7 10 0 23 -17 12 -16 45 -51 72 -76z
m16 85 c13 -16 12 -17 -3 -4 -10 7 -18 15 -18 17 0 8 8 3 21 -13z m-461 -78
c-11 -38 -19 -61 -19 -49 -1 22 28 128 34 122 1 -1 -5 -34 -15 -73z m177 53
c-3 -8 -6 -5 -6 6 -1 11 2 17 5 13 3 -3 4 -12 1 -19z m1370 16 c-3 -3 -12 -4
-19 -1 -8 3 -5 6 6 6 11 1 17 -2 13 -5z m-1350 -36 c-3 -7 -5 -2 -5 12 0 14 2
19 5 13 2 -7 2 -19 0 -25z m1589 7 c-11 -8 -25 -15 -30 -15 -6 1 0 7 14 15 32
19 40 18 16 0z m-1709 -17 c-3 -8 -6 -5 -6 6 -1 11 2 17 5 13 3 -3 4 -12 1
-19z m90 -30 c-3 -7 -5 -2 -5 12 0 14 2 19 5 13 2 -7 2 -19 0 -25z m154 5 c13
-16 12 -17 -3 -4 -10 7 -18 15 -18 17 0 8 8 3 21 -13z m1999 -17 c40 -6 92
-32 125 -61 17 -14 21 -21 10 -15 -11 5 -51 19 -90 30 -69 19 -70 20 -20 15
48 -4 47 -3 -17 12 -38 9 -68 20 -68 25 0 5 8 7 18 4 9 -3 28 -7 42 -10z
m-182 -3 c-10 -2 -26 -2 -35 0 -10 3 -2 5 17 5 19 0 27 -2 18 -5z m-71 -9 c-3
-3 -12 -4 -19 -1 -8 3 -5 6 6 6 11 1 17 -2 13 -5z m220 -10 c-3 -3 -12 -4 -19
-1 -8 3 -5 6 6 6 11 1 17 -2 13 -5z m-2246 -31 c-12 -20 -14 -14 -5 12 4 9 9
14 11 11 3 -2 0 -13 -6 -23z m1459 -3 c-8 -5 -19 -10 -25 -10 -5 0 -3 5 5 10
8 5 20 10 25 10 6 0 3 -5 -5 -10z m-1089 -27 c13 -16 12 -17 -3 -4 -10 7 -18
15 -18 17 0 8 8 3 21 -13z m1852 10 c-7 -2 -21 -2 -30 0 -10 3 -4 5 12 5 17 0
24 -2 18 -5z m-2229 -19 c3 -8 2 -12 -4 -9 -6 3 -10 10 -10 16 0 14 7 11 14
-7z m2291 6 c13 -5 14 -9 5 -9 -8 0 -24 4 -35 9 -13 5 -14 9 -5 9 8 0 24 -4
35 -9z m-2464 -90 c21 -101 64 -159 110 -147 10 3 22 1 25 -5 3 -5 12 -7 20
-4 7 3 16 1 19 -4 7 -11 -28 -15 -82 -11 -38 2 -47 -23 -13 -34 11 -4 18 -10
15 -15 -3 -5 5 -10 17 -12 13 -2 21 -7 18 -13 -3 -5 -9 -9 -13 -7 -5 1 -6 -2
-2 -7 3 -6 27 -10 53 -9 42 1 49 -3 80 -38 49 -56 164 -223 183 -264 9 -19 19
-55 23 -80 6 -41 6 -43 -8 -25 -14 19 -15 19 -52 -20 -20 -22 -42 -40 -47 -40
-6 0 -13 -9 -18 -20 -5 -14 -8 -16 -9 -5 -2 8 -2 19 -1 23 1 5 -3 6 -9 2 -5
-3 -13 1 -16 9 -3 9 -10 13 -15 10 -5 -3 -6 2 -3 11 6 14 8 14 21 -2 13 -16
13 -16 3 5 -6 12 -15 20 -20 17 -4 -3 -17 6 -28 20 -20 26 -39 35 -26 13 6
-10 5 -10 -8 0 -12 10 -18 9 -28 -3 -7 -8 -16 -12 -21 -9 -5 3 -6 -2 -2 -11 3
-10 8 -12 12 -7 4 6 21 -2 41 -20 19 -16 28 -26 20 -22 -8 4 -23 14 -32 22
-10 8 -18 11 -18 5 0 -10 80 -69 90 -66 3 1 6 -12 5 -28 0 -20 -15 -48 -48
-88 -46 -57 -48 -59 -77 -48 -25 9 -34 21 -45 61 -8 27 -15 61 -16 75 0 14 -7
44 -14 66 l-14 40 5 -35 c21 -173 28 -210 46 -248 42 -88 113 -137 190 -130
77 8 130 70 163 191 7 28 14 43 14 31 1 -34 -37 -134 -65 -172 -48 -62 -150
-90 -212 -58 -73 38 -123 124 -147 252 -16 81 -19 253 -6 319 4 22 3 83 -3
135 -11 103 -14 207 -6 229 3 9 -7 20 -25 29 -46 22 -62 40 -67 73 -4 28 5 39
17 19 3 -5 11 -10 17 -10 6 0 -1 9 -15 20 -22 17 -24 25 -17 48 4 15 12 41 16
57 6 23 8 26 11 10 2 -11 8 -45 14 -75z m2529 70 c18 -12 2 -12 -25 0 -13 6
-15 9 -5 9 8 0 22 -4 30 -9z m105 -30 c33 -11 44 -17 25 -13 -38 6 -111 31
-95 32 6 0 37 -8 70 -19z m-604 -11 c-30 -10 -56 -17 -58 -15 -5 5 77 34 97
34 8 1 -9 -8 -39 -19z m-1083 -6 c-10 -2 -26 -2 -35 0 -10 3 -2 5 17 5 19 0
27 -2 18 -5z m1846 -9 c9 -3 13 -11 10 -16 -4 -6 2 -8 17 -3 20 5 21 4 9 -5
-13 -10 -12 -11 6 -7 23 5 54 -8 54 -23 0 -6 -5 -10 -11 -10 -5 0 -7 5 -4 11
4 6 1 9 -7 7 -22 -5 -129 35 -115 44 15 9 21 10 41 2z m-844 -14 c-8 -5 -19
-10 -25 -10 -5 0 -3 5 5 10 8 5 20 10 25 10 6 0 3 -5 -5 -10z m-50 -20 c-8 -5
-19 -10 -25 -10 -5 0 -3 5 5 10 8 5 20 10 25 10 6 0 3 -5 -5 -10z m-1713 -32
c-3 -7 -5 -2 -5 12 0 14 2 19 5 13 2 -7 2 -19 0 -25z m1932 18 c-2 -2 -17 -6
-34 -10 -22 -5 -26 -4 -15 4 14 9 59 15 49 6z m-109 -36 c-8 -5 -19 -10 -25
-10 -5 0 -3 5 5 10 8 5 20 10 25 10 6 0 3 -5 -5 -10z m353 3 c-7 -2 -19 -2
-25 0 -7 3 -2 5 12 5 14 0 19 -2 13 -5z m-2153 -23 c6 -11 8 -20 6 -20 -3 0
-10 9 -16 20 -6 11 -8 20 -6 20 3 0 10 -9 16 -20z m2083 13 c-13 -2 -33 -2
-45 0 -13 2 -3 4 22 4 25 0 35 -2 23 -4z m-86 -9 c-3 -3 -12 -4 -19 -1 -8 3
-5 6 6 6 11 1 17 -2 13 -5z m593 -4 c18 -12 2 -12 -25 0 -13 6 -15 9 -5 9 8 0
22 -4 30 -9z m-687 -7 c-7 -2 -19 -2 -25 0 -7 3 -2 5 12 5 14 0 19 -2 13 -5z
m456 -7 c-2 -2 -22 -6 -44 -9 -27 -4 -35 -3 -25 3 14 9 79 15 69 6z m-624 -40
c-49 -18 -108 -40 -129 -50 -22 -9 -41 -14 -43 -12 -3 2 5 7 18 11 14 5 18 10
10 14 -7 5 -2 12 14 19 17 8 24 8 20 2 -8 -13 21 -7 106 25 35 13 71 24 79 24
8 0 -25 -15 -75 -33z m378 7 c-7 -2 -19 -2 -25 0 -7 3 -2 5 12 5 14 0 19 -2
13 -5z m124 1 c-3 -3 -12 -4 -19 -1 -8 3 -5 6 6 6 11 1 17 -2 13 -5z m76 -1
c-7 -2 -19 -2 -25 0 -7 3 -2 5 12 5 14 0 19 -2 13 -5z m-255 -10 c-10 -2 -26
-2 -35 0 -10 3 -2 5 17 5 19 0 27 -2 18 -5z m120 0 c-10 -2 -26 -2 -35 0 -10
3 -2 5 17 5 19 0 27 -2 18 -5z m568 -23 c24 -17 44 -33 44 -36 0 -3 -21 9 -47
27 -58 39 -58 39 -49 39 4 0 27 -14 52 -30z m-3874 -2 c-7 -7 -12 -8 -12 -2 0
14 12 26 19 19 2 -3 -1 -11 -7 -17z m3773 -16 c-3 -3 -11 0 -18 7 -9 10 -8 11
6 5 10 -3 15 -9 12 -12z m-148 -8 c-3 -3 -12 -4 -19 -1 -8 3 -5 6 6 6 11 1 17
-2 13 -5z m58 -14 c13 -5 14 -9 5 -9 -8 0 -24 4 -35 9 -13 5 -14 9 -5 9 8 0
24 -4 35 -9z m160 -8 c-3 -3 -11 0 -18 7 -9 10 -8 11 6 5 10 -3 15 -9 12 -12z
m-1250 -12 c-22 -10 -56 -21 -75 -24 -22 -4 -11 3 30 18 76 29 102 32 45 6z
m1365 -5 c13 -14 21 -25 18 -25 -2 0 -15 11 -28 25 -13 14 -21 25 -18 25 2 0
15 -11 28 -25z m-223 9 c-3 -3 -12 -4 -19 -1 -8 3 -5 6 6 6 11 1 17 -2 13 -5z
m173 -14 c21 -11 41 -24 45 -29 4 -8 -77 32 -94 46 -13 10 15 0 49 -17z
m-1030 -25 c0 -3 -27 -18 -60 -35 -33 -17 -60 -28 -60 -25 0 2 26 18 58 34 64
34 62 33 62 26z m787 -31 c-3 -3 -12 -4 -19 -1 -8 3 -5 6 6 6 11 1 17 -2 13
-5z m338 -14 c10 -11 16 -20 13 -20 -3 0 -13 9 -23 20 -10 11 -16 20 -13 20 3
0 13 -9 23 -20z m-278 4 c-3 -3 -12 -4 -19 -1 -8 3 -5 6 6 6 11 1 17 -2 13 -5z
m60 -10 c-3 -3 -12 -4 -19 -1 -8 3 -5 6 6 6 11 1 17 -2 13 -5z m-2556 -31 c13
-16 12 -17 -3 -4 -10 7 -18 15 -18 17 0 8 8 3 21 -13z m1823 6 c-9 -16 15 -18
42 -4 37 19 54 19 54 0 0 -11 11 -15 41 -15 22 0 38 4 34 9 -3 5 -1 13 5 16 6
4 9 1 8 -7 -2 -7 4 -13 12 -13 8 0 14 6 12 13 -1 8 2 11 8 7 6 -3 8 -10 5 -15
-6 -10 14 -18 42 -15 13 1 19 -3 16 -11 -2 -6 1 -15 8 -20 8 -5 10 -3 4 7 -7
11 -6 12 6 2 31 -25 146 -60 169 -51 18 7 20 6 12 -4 -8 -10 -4 -13 14 -14 13
-1 21 2 18 7 -3 5 0 9 5 9 6 0 11 -7 11 -15 0 -9 9 -15 25 -15 38 0 40 1 37
14 -2 6 0 8 4 3 4 -4 18 0 31 8 37 25 27 10 -22 -30 l-46 -37 -104 47 c-143
64 -218 76 -421 68 -107 -4 -163 -3 -167 4 -4 6 1 10 11 9 9 0 16 5 15 12 -3
14 6 15 27 2 12 -8 12 -10 1 -10 -8 0 -12 -3 -8 -6 3 -3 11 -3 17 1 8 5 8 11
-1 21 -7 9 -8 14 -1 14 6 0 14 -4 17 -10 4 -6 13 -5 25 2 10 7 17 15 15 18 -2
4 2 7 10 7 8 0 12 -4 9 -8z m475 -21 c-18 -33 -49 -72 -49 -61 0 6 6 16 14 22
8 6 19 25 26 42 7 16 15 28 17 25 3 -2 -1 -15 -8 -28z m467 16 c27 -10 63 -26
79 -37 40 -27 95 -79 95 -90 0 -5 -12 5 -26 22 -35 42 -103 81 -178 102 -34
10 -52 18 -40 18 11 1 43 -6 70 -15z m-1803 -31 c-7 -2 -19 -2 -25 0 -7 3 -2
5 12 5 14 0 19 -2 13 -5z m-46 -9 c-3 -3 -12 -4 -19 -1 -8 3 -5 6 6 6 11 1 17
-2 13 -5z m-64 -11 c-7 -2 -19 -2 -25 0 -7 3 -2 5 12 5 14 0 19 -2 13 -5z
m-130 -10 c-7 -2 -19 -2 -25 0 -7 3 -2 5 12 5 14 0 19 -2 13 -5z m1369 -19
c34 -10 55 -21 51 -27 -3 -5 -1 -7 5 -3 16 9 124 -33 116 -46 -4 -6 -2 -8 4
-5 5 4 17 4 26 1 14 -5 14 -9 4 -22 -11 -13 -10 -14 7 -5 29 15 122 -25 117
-49 -4 -21 1 -21 48 -8 32 9 33 8 16 -5 -11 -8 -23 -15 -27 -15 -4 0 -7 -9 -6
-19 0 -11 5 -17 9 -15 5 3 11 -1 14 -10 3 -9 12 -12 21 -9 9 4 14 2 10 -3 -3
-6 7 -9 24 -8 16 1 27 -2 24 -6 -3 -4 2 -11 11 -14 8 -3 13 -2 10 3 -3 4 7 8
22 9 48 1 135 42 167 78 17 19 35 34 40 34 26 0 -76 -82 -137 -110 -66 -31
-75 -32 -152 -27 -89 6 -210 42 -199 59 3 7 1 8 -6 4 -6 -4 -75 14 -154 41
l-142 48 -209 -1 c-178 -1 -205 1 -185 12 l24 13 -30 2 -30 1 30 9 c17 5 44
10 60 12 22 2 31 8 33 25 2 14 13 24 30 29 l27 7 -25 6 c-19 5 -11 9 35 14 33
4 69 8 80 10 61 10 185 4 237 -10z m627 -71 c2 -2 2 -5 0 -8 -3 -2 -27 19 -55
48 l-49 52 50 -45 c27 -25 52 -46 54 -47z m-3098 0 c12 -14 12 -16 -2 -11 -25
9 -91 -25 -127 -66 -78 -90 -135 -265 -131 -411 1 -44 6 -85 11 -92 6 -8 -8
-24 -46 -52 -77 -57 -156 -103 -170 -98 -6 3 3 10 19 18 17 7 68 37 114 68 68
45 80 57 68 66 -8 6 -14 22 -12 35 1 14 0 17 -2 8 -2 -10 -9 -18 -14 -18 -6 0
-7 -4 -4 -10 9 -14 -19 -12 -33 2 -9 9 -12 7 -12 -11 0 -15 4 -20 13 -15 7 4
9 3 4 -2 -5 -5 -10 -7 -12 -4 -1 3 -12 -6 -23 -20 l-21 -25 15 45 c9 25 29 60
47 77 17 18 28 35 25 38 -3 3 -11 -1 -18 -10 -7 -8 -20 -15 -29 -15 -13 1 -12
3 4 12 28 16 45 35 45 49 0 8 -4 8 -12 1 -10 -8 -13 -4 -14 14 -1 14 2 21 9
17 5 -3 7 -1 4 4 -4 6 0 14 9 17 12 5 15 2 10 -11 -5 -12 -4 -15 3 -8 6 6 8
21 4 34 -3 12 -9 19 -12 14 -11 -15 -55 -48 -48 -36 4 6 2 13 -3 15 -6 2 6 28
27 58 21 30 60 91 87 135 72 119 104 155 160 181 28 13 52 24 52 24 1 0 8 -8
15 -17z m109 -8 c-7 -8 -18 -15 -26 -15 -7 0 -17 -6 -21 -12 -4 -7 -20 -22
-34 -33 -14 -11 -3 1 24 28 45 44 86 67 57 32z m1513 -32 c-15 -25 -32 -62
-39 -82 -7 -20 -13 -28 -14 -18 0 25 62 147 76 147 1 0 -9 -21 -23 -47z
m-1073 17 c19 0 29 -18 31 -53 1 -20 2 -20 10 3 9 27 3 -107 -8 -168 -11 -65
-21 -29 -58 208 -3 19 -3 29 1 23 3 -7 14 -13 24 -13z m2305 11 c3 -5 0 -13
-6 -17 -7 -4 -9 -3 -5 4 3 5 0 13 -6 15 -9 4 -10 6 -1 6 6 1 14 -3 18 -8z
m-45 -11 c0 -5 -4 -10 -10 -10 -5 0 -10 5 -10 10 0 6 5 10 10 10 6 0 10 -4 10
-10z m350 -27 c0 -7 -39 17 -46 28 -3 6 5 3 20 -6 14 -10 26 -19 26 -22z
m-1945 8 c-19 -32 -176 -38 -300 -11 -33 8 -29 8 25 4 118 -8 225 -6 250 4 32
14 32 14 25 3z m2002 -28 c-3 -10 -5 -4 -5 12 0 17 2 24 5 18 2 -7 2 -21 0
-30z m37 11 c3 -8 2 -12 -4 -9 -6 3 -10 10 -10 16 0 14 7 11 14 -7z m-2539
-31 c11 -15 15 -16 31 -3 18 14 18 14 0 -7 -10 -13 -23 -20 -29 -16 -5 3 -7 1
-4 -4 9 -15 -22 -75 -35 -67 -6 4 -8 2 -5 -4 4 -5 -2 -31 -13 -57 -35 -82 -21
-70 25 23 25 49 53 95 62 103 15 11 16 11 6 -1 -19 -21 -16 -35 4 -19 15 13
15 12 2 -8 -8 -14 -16 -18 -20 -12 -5 8 -9 8 -13 0 -4 -6 -4 -16 0 -23 4 -7 3
-8 -4 -4 -7 4 -12 2 -12 -5 0 -7 -12 -37 -27 -67 -15 -31 -29 -79 -32 -111 -3
-44 -6 -51 -12 -31 -5 20 -7 15 -8 -22 -1 -25 -4 -55 -7 -65 -4 -11 -3 -14 3
-7 5 8 16 -7 29 -42 12 -29 17 -51 13 -48 -5 3 -9 1 -9 -4 0 -15 56 -63 65
-55 4 5 5 3 1 -4 -3 -6 4 -19 16 -27 26 -19 42 -21 32 -5 -4 8 0 8 15 0 25
-14 28 -22 4 -15 -15 5 -15 3 1 -10 11 -9 24 -16 30 -16 5 0 7 -3 3 -6 -10
-10 -90 43 -134 88 -61 64 -87 121 -86 188 2 51 57 353 69 372 8 13 26 9 39
-9z m760 0 c-4 -10 -10 -28 -12 -40 -3 -13 -9 -23 -13 -23 -18 0 -3 -46 20
-57 20 -10 28 -9 45 5 20 17 20 17 1 -5 -23 -27 -67 -30 -92 -6 -11 11 -13 18
-5 21 6 2 11 8 11 13 0 6 -4 7 -10 4 -12 -7 -13 35 -1 53 4 7 14 12 21 10 7
-2 15 3 17 10 3 8 -2 10 -14 6 -16 -5 -16 -4 1 10 26 21 40 20 31 -1z m57 -18
c-8 -16 -9 -16 -15 -1 -4 10 -3 15 3 11 6 -3 10 -1 10 6 0 7 3 10 6 6 3 -3 2
-13 -4 -22z m353 7 c-3 -3 -11 0 -18 7 -9 10 -8 11 6 5 10 -3 15 -9 12 -12z
m565 -5 c30 -10 62 -21 70 -23 13 -5 13 -6 0 -15 -12 -8 -10 -9 7 -4 14 4 42
-2 70 -15 27 -12 83 -33 125 -47 43 -14 76 -28 74 -32 -3 -4 5 -7 17 -7 96 -1
140 -6 122 -14 -19 -8 -19 -9 3 -9 12 -1 22 3 22 7 0 4 16 8 36 9 19 1 59 12
87 26 41 20 47 22 28 6 -39 -32 -128 -54 -216 -53 -69 1 -99 7 -215 48 -302
107 -269 100 -515 102 -124 1 -231 6 -245 12 -20 8 -12 9 36 5 71 -6 170 5
140 16 -10 4 53 7 140 7 126 -1 170 -5 214 -19z m-2460 10 c0 -2 -10 -12 -22
-23 l-23 -19 19 23 c18 21 26 27 26 19z m2053 -4 c-13 -2 -35 -2 -50 0 -16 2
-5 4 22 4 28 0 40 -2 28 -4z m1143 -47 c-14 -25 -30 -47 -35 -51 -5 -3 5 19
22 49 18 29 34 52 36 50 2 -2 -8 -23 -23 -48z m-1797 -9 c0 -29 1 -59 3 -66 3
-15 -69 -44 -85 -34 -5 3 -7 1 -4 -4 4 -6 0 -14 -9 -17 -8 -3 -12 -2 -9 4 3 6
1 10 -4 10 -6 0 -11 -7 -11 -15 0 -8 -7 -15 -16 -15 -9 0 -12 -5 -8 -12 4 -6
3 -8 -3 -5 -6 4 -22 -5 -36 -19 -18 -18 -27 -21 -30 -12 -3 7 -5 2 -4 -12 2
-22 -4 -26 -40 -34 -44 -10 -64 -33 -41 -48 13 -8 11 -9 -32 -11 -14 -1 -24
-7 -23 -13 1 -5 -7 -16 -19 -23 -16 -10 -19 -10 -13 1 4 7 -3 2 -15 -12 -12
-14 -18 -18 -14 -10 4 8 -5 4 -19 -9 -30 -27 -37 -25 -41 13 -1 14 -6 29 -11
34 -4 4 -5 1 0 -7 6 -11 -1 -12 -36 -6 -56 9 -70 22 -33 30 16 3 48 10 72 15
53 12 65 13 57 0 -3 -5 -12 -7 -19 -4 -8 3 -16 1 -20 -4 -9 -15 36 -6 48 9 6
8 25 21 41 27 17 7 43 23 58 36 24 19 26 24 12 29 -9 4 -14 3 -10 -3 6 -10 -7
-14 -35 -11 -12 2 -12 0 -2 -7 11 -7 11 -10 -2 -15 -9 -4 -24 -4 -33 -1 -15 5
-16 4 -3 -5 8 -6 11 -11 5 -11 -5 0 -21 -3 -34 -7 -18 -5 -22 -3 -16 7 5 9 4
11 -4 6 -6 -4 -9 -12 -6 -17 4 -5 -8 -9 -24 -9 -17 0 -31 5 -31 11 0 5 4 8 8
5 5 -3 9 2 9 11 0 12 -6 9 -23 -10 -12 -14 -51 -39 -87 -55 -35 -16 -67 -35
-71 -41 -14 -22 -47 -12 -60 20 -9 21 -15 27 -19 18 -3 -9 -6 -9 -6 -2 -1 6 4
15 9 18 6 3 10 24 10 45 0 84 73 210 142 246 37 19 123 19 253 -1 55 -8 118
-15 140 -15 49 0 83 -30 65 -58 -11 -16 -11 -16 -6 1 3 11 0 17 -9 17 -8 0
-12 -6 -9 -14 3 -8 0 -17 -6 -21 -9 -6 -9 -10 1 -17 9 -6 3 -7 -18 -3 -21 4
-44 1 -64 -9 -39 -19 -42 -20 -33 -3 4 7 3 9 -2 4 -12 -12 -12 -30 1 -39 12
-9 67 -1 108 14 27 11 67 77 67 113 0 8 20 25 45 37 25 12 45 26 45 30 0 4 2
8 4 8 3 0 5 -24 5 -53z m1495 21 c-3 -4 -12 -8 -20 -8 -8 0 -14 4 -14 8 0 4 9
8 19 8 11 0 17 -4 15 -8z m-1359 -28 c-10 -11 -29 -19 -44 -19 l-26 2 27 4
c14 2 32 11 38 19 7 8 15 14 18 14 3 0 -3 -9 -13 -20z m36 -27 c13 -15 12 -15
-8 -4 -24 12 -29 21 -14 21 5 0 15 -7 22 -17z m1779 -29 c73 -22 126 -60 180
-129 62 -80 87 -103 144 -132 28 -14 73 -42 100 -63 78 -58 157 -95 167 -78 6
9 8 5 5 -12 -2 -17 3 -31 18 -42 11 -10 16 -18 9 -18 -6 0 -22 9 -35 20 -56
47 -208 141 -230 142 -39 1 -150 40 -137 49 8 5 6 8 -7 11 -17 4 -16 6 5 15
24 10 23 11 -32 52 -31 23 -60 42 -64 43 -5 0 -25 12 -46 25 -21 13 -43 21
-49 17 -7 -4 -8 -3 -4 4 9 14 -40 35 -57 25 -7 -3 -9 -3 -5 2 14 15 -12 46
-32 40 -11 -3 -28 -1 -37 5 -15 9 -14 10 7 4 l25 -7 -25 21 -25 21 36 1 c19 0
60 -7 89 -16z m-1743 -26 c-3 -8 -6 -5 -6 6 -1 11 2 17 5 13 3 -3 4 -12 1 -19z
m90 -10 c-3 -7 -5 -2 -5 12 0 14 2 19 5 13 2 -7 2 -19 0 -25z m-20 0 c-3 -8
-6 -5 -6 6 -1 11 2 17 5 13 3 -3 4 -12 1 -19z m-177 -13 c0 -1 -13 -2 -28 -1
-16 1 -29 6 -29 12 0 9 8 9 29 2 15 -6 28 -11 28 -13z m81 -42 c-11 -21 -20
-35 -21 -31 0 12 33 78 38 74 2 -2 -6 -21 -17 -43z m-68 10 c-7 -2 -19 -2 -25
0 -7 3 -2 5 12 5 14 0 19 -2 13 -5z m152 -33 c-4 -12 -9 -19 -12 -17 -3 3 -2
15 2 27 4 12 9 19 12 17 3 -3 2 -15 -2 -27z m-1088 -2 c-3 -8 -6 -5 -6 6 -1
11 2 17 5 13 3 -3 4 -12 1 -19z m941 -18 c22 -7 23 -8 6 -9 -11 -1 -29 6 -40
15 -10 8 -13 12 -6 9 8 -4 26 -11 40 -15z m1512 -37 c0 -7 -39 17 -46 28 -3 6
5 3 20 -6 14 -10 26 -19 26 -22z m65 -8 c38 -28 74 -37 157 -39 36 0 70 -5 75
-9 4 -5 -6 -6 -22 -3 l-30 6 30 -14 c17 -9 35 -15 41 -16 16 0 25 -26 29 -75
3 -43 10 -78 20 -98 4 -6 -16 13 -44 43 -28 30 -51 52 -51 48 0 -4 -17 11 -38
34 -26 27 -39 36 -39 24 0 -9 3 -14 5 -11 9 9 42 -27 35 -38 -3 -5 -1 -7 4 -4
6 4 14 0 17 -9 3 -8 10 -13 15 -9 5 3 12 1 16 -5 3 -5 2 -10 -4 -10 -11 0 56
-69 119 -123 25 -21 36 -34 25 -29 -32 17 -265 224 -260 232 2 4 -4 15 -15 25
-11 10 -17 21 -15 26 3 4 1 10 -4 13 -5 3 -11 0 -14 -8 -4 -9 5 -21 19 -31 14
-9 24 -19 21 -21 -5 -5 -44 22 -123 84 -19 15 -22 19 -7 12 36 -17 40 -11 8
16 -34 29 -15 22 30 -11z m-310 5 c-3 -5 -1 -10 4 -10 6 0 11 -6 11 -14 0 -8
5 -18 11 -22 14 -8 8 38 -6 48 -38 28 156 -29 202 -59 12 -8 27 -12 33 -8 6 4
9 1 8 -7 -2 -7 5 -12 15 -12 9 1 17 -2 17 -6 0 -4 34 -31 74 -60 41 -30 72
-58 69 -63 -3 -6 -1 -7 5 -3 6 4 24 -6 39 -21 16 -15 19 -19 6 -9 -13 11 -26
16 -30 13 -11 -12 39 -47 134 -93 51 -24 93 -46 93 -49 0 -2 -26 7 -57 20
-169 68 -362 121 -598 165 -28 5 -32 8 -15 9 25 2 25 2 -5 15 -33 14 -61 43
-52 53 4 3 2 12 -4 19 -8 10 -6 12 13 9 l23 -4 -21 17 c-24 19 -38 51 -24 53
6 1 16 2 23 3 6 1 11 7 10 14 -2 7 4 12 13 12 8 0 12 -4 9 -10z m-3131 -12
c-4 -7 -14 -21 -22 -30 -14 -16 -13 -18 2 -18 9 0 20 9 24 20 5 13 11 17 21
10 13 -7 13 -11 0 -26 -9 -11 -9 -15 -1 -10 21 13 13 -2 -15 -29 -24 -21 -25
-25 -9 -25 17 0 17 -2 2 -25 -9 -13 -16 -33 -16 -43 0 -10 -5 -23 -11 -29 -6
-6 -16 -21 -23 -34 -6 -12 -16 -24 -22 -26 -20 -7 -11 32 18 77 17 24 24 39
16 32 -8 -6 -18 -8 -22 -4 -4 4 -7 3 -6 -3 4 -20 0 -32 -20 -55 -26 -30 -25
-26 6 50 30 74 54 113 55 90 0 -11 2 -12 6 -2 3 7 -3 19 -13 27 -18 13 -18 14
5 39 26 28 36 33 25 14z m1520 -9 c-10 -11 -28 -26 -39 -31 -11 -6 -17 -7 -13
-3 4 5 2 15 -5 24 -11 14 -10 14 6 2 16 -13 21 -12 40 7 27 28 36 29 11 1z
m130 -27 c-16 -15 -31 -26 -34 -24 -5 4 47 52 57 52 3 0 -7 -12 -23 -28z
m-114 -26 c-17 -17 -163 -78 -155 -66 3 5 37 20 75 35 38 15 72 31 76 36 3 5
8 9 12 9 3 0 0 -7 -8 -14z m-397 -13 c-10 -10 -23 -25 -30 -33 -7 -8 -13 -10
-13 -4 0 13 38 54 51 54 6 0 2 -8 -8 -17z m2677 -76 c0 -4 -4 -5 -10 -2 -5 3
-10 -1 -10 -9 0 -9 -4 -16 -10 -16 -14 0 -13 13 2 28 9 9 7 19 -11 44 l-22 33
30 -35 c17 -19 31 -38 31 -43z m-3916 -4 c-18 -38 -40 -93 -48 -123 -11 -41
-15 -48 -15 -25 -1 33 -16 24 -24 -15 -3 -14 -4 -9 -2 10 4 51 12 79 30 109
11 17 6 14 -14 -9 -16 -19 -28 -37 -25 -39 2 -2 -4 -10 -14 -18 -9 -8 -11 -12
-4 -8 14 7 17 -11 3 -19 -5 -3 -7 -16 -5 -29 4 -20 4 -21 -5 -2 -9 19 -10 19
-10 -4 -1 -13 -4 -22 -7 -18 -3 3 -3 24 1 46 5 31 24 59 83 125 41 47 79 86
82 86 4 0 -8 -30 -26 -67z m1336 50 c-8 -3 -30 -12 -47 -19 -18 -7 -33 -11
-33 -8 0 7 63 33 80 33 13 -1 13 -1 0 -6z m-185 -13 c-3 -5 -12 -10 -18 -10
-7 0 -6 4 3 10 19 12 23 12 15 0z m2712 -2 c15 -21 9 -43 -12 -43 -15 0 -20 7
-20 28 -1 28 16 36 32 15z m-2804 -128 c-4 -19 -8 -38 -9 -42 -1 -5 -2 -16 -3
-25 -1 -15 -3 -16 -10 -3 -6 8 -7 18 -5 22 3 4 1 8 -4 8 -4 0 -15 15 -24 33
-15 30 -14 34 11 83 l26 52 12 -47 c7 -26 10 -61 6 -81z m3117 98 c0 -5 5 -6
12 -2 7 4 8 3 4 -4 -8 -14 -33 -5 -40 13 -3 9 0 12 10 8 7 -3 14 -9 14 -15z
m-2632 5 c-10 -2 -26 -2 -35 0 -10 3 -2 5 17 5 19 0 27 -2 18 -5z m2589 -29
c-3 -3 -12 -4 -19 -1 -8 3 -5 6 6 6 11 1 17 -2 13 -5z m84 -43 c35 -10 80 -23
99 -29 23 -6 28 -10 14 -11 -11 -1 -29 -10 -39 -21 -10 -11 -22 -17 -28 -13
-5 3 -7 2 -4 -4 4 -6 0 -18 -7 -28 -13 -18 -15 -18 -40 -2 -29 20 -33 35 -11
43 8 4 12 11 9 16 -4 6 1 6 13 0 11 -6 25 -7 33 -2 7 4 20 6 29 3 12 -3 12 -2
-2 7 -9 6 -22 8 -29 4 -7 -4 -8 -3 -4 4 6 10 -16 18 -27 10 -2 -2 -11 3 -19
10 -9 7 -35 17 -59 21 -30 6 -36 9 -18 10 15 1 55 -7 90 -18z m-3455 -26 c10
-8 37 -15 59 -16 37 -2 38 -2 8 -6 -18 -2 -33 -9 -33 -14 0 -6 5 -7 11 -3 8 4
9 0 4 -15 -4 -13 -2 -21 5 -21 7 0 10 -8 7 -20 -3 -11 -1 -23 4 -26 6 -3 7
-14 4 -24 -3 -10 -1 -21 4 -25 7 -4 8 1 4 12 -4 13 -3 15 5 8 18 -17 18 -37 0
-40 -10 -2 -18 0 -18 4 0 4 -6 15 -13 25 -12 16 -14 16 -14 2 0 -29 35 -49 92
-54 31 -2 58 -9 61 -13 6 -11 -103 0 -127 12 -19 10 -74 98 -66 106 3 2 8 -5
12 -16 3 -12 11 -19 16 -15 6 4 6 11 -2 20 -6 8 -12 22 -13 32 -1 9 -12 36
-24 60 -23 44 -19 52 14 27z m3688 -44 c-3 -3 -11 5 -20 17 -8 12 -20 20 -25
17 -5 -3 -6 1 -2 10 5 14 10 12 29 -12 12 -15 20 -30 18 -32z m-3466 16 c20
-19 33 -65 14 -53 -5 3 -7 -7 -4 -22 4 -32 -34 -95 -62 -100 -25 -5 -55 25
-77 76 -27 63 -25 80 16 99 24 12 31 19 23 25 -7 4 5 5 27 1 22 -3 50 -15 63
-26z m122 -7 c-12 -23 -6 -40 16 -40 8 0 14 -5 14 -11 0 -5 -5 -7 -11 -4 -15
10 -4 -131 12 -153 11 -14 10 -14 -8 2 -29 24 -46 77 -46 140 0 51 21 122 30
99 2 -7 -1 -21 -7 -33z m186 29 c5 -8 9 -7 14 1 4 7 15 10 25 7 20 -8 11 -27
-13 -27 -24 1 -72 29 -50 30 9 0 20 -5 24 -11z m-1296 -30 c-14 -26 -18 -24
-12 6 2 14 8 22 13 19 5 -3 5 -14 -1 -25z m3880 10 c0 -6 -4 -7 -10 -4 -5 3
-10 11 -10 16 0 6 5 7 10 4 6 -3 10 -11 10 -16z m-2741 -12 c8 -10 7 -14 -4
-14 -8 0 -15 6 -15 14 0 7 2 13 4 13 2 0 9 -6 15 -13z m3471 -13 c0 -2 -13 -4
-30 -4 -16 0 -30 4 -30 8 0 5 14 7 30 4 17 -2 30 -6 30 -8z m-3851 -34 c0 -10
-3 -8 -9 5 -12 27 -12 43 0 25 5 -8 9 -22 9 -30z m3740 30 c-74 -13 -167 -69
-152 -93 3 -6 1 -7 -5 -3 -7 4 -18 -7 -28 -26 -15 -28 -18 -69 -21 -258 -2
-124 -8 -249 -13 -279 -16 -86 -21 -74 70 -152 28 -24 82 -82 118 -129 37 -47
96 -119 131 -160 94 -109 95 -110 88 -110 -3 0 -56 62 -118 138 -63 75 -158
181 -213 234 l-99 98 12 107 c14 124 13 465 -1 474 -5 3 -3 20 6 40 l16 34 -6
-35 -6 -35 24 45 c40 73 119 118 208 118 31 0 30 -1 -11 -8z m-4666 -12 c-5
-7 -9 -34 -9 -60 1 -52 -10 -66 -16 -20 -3 23 -4 22 -9 -11 -3 -21 0 -53 7
-72 14 -43 10 -45 -11 -5 -9 17 -13 30 -10 30 3 0 1 8 -4 19 -6 10 -7 21 -4
25 4 4 9 19 11 34 4 32 28 72 43 72 8 0 8 -4 2 -12z m941 -196 c20 -91 43
-166 57 -188 12 -21 17 -34 11 -30 -7 4 -19 21 -27 37 -9 17 -21 27 -27 23 -6
-4 -8 -3 -4 4 3 6 2 22 -4 36 -10 26 -51 258 -49 279 1 22 9 -7 43 -161z m603
152 c-3 -3 -12 -4 -19 -1 -8 3 -5 6 6 6 11 1 17 -2 13 -5z m3098 -38 c-15 -20
-24 -36 -21 -36 4 0 -1 -11 -10 -25 -9 -13 -14 -30 -11 -37 4 -8 6 -7 6 4 1
26 68 96 112 119 56 28 60 23 8 -9 -24 -16 -59 -46 -78 -67 -30 -35 -33 -43
-28 -85 3 -25 24 -88 47 -140 43 -97 58 -172 33 -163 -7 3 -13 10 -13 17 0 6
-11 32 -23 57 -22 45 -25 75 -6 64 5 -4 6 2 2 11 -6 16 -8 16 -16 2 -9 -13
-16 -8 -44 31 -18 25 -40 55 -48 67 -8 11 -17 36 -20 55 l-5 34 10 -32 c15
-46 21 -41 14 11 -7 47 11 100 26 76 5 -8 2 -23 -7 -37 -14 -20 -14 -29 -2
-71 7 -26 14 -50 15 -54 4 -21 7 -21 15 2 l8 25 -1 -25 c-1 -14 6 -38 15 -55
l17 -30 -5 30 c-2 17 -10 55 -17 85 -11 51 -13 53 -19 25 -7 -30 -7 -30 -8 -3
0 15 -6 30 -11 33 -7 4 -6 13 1 27 6 12 12 36 14 55 2 37 32 76 52 69 7 -3 13
0 13 6 0 6 3 9 6 5 3 -3 -6 -22 -21 -41z m-4514 21 c-1 -4 -3 -7 -6 -7 -40 0
-40 0 -25 10 16 10 32 9 31 -3z m1456 7 c-3 -3 -12 -4 -19 -1 -8 3 -5 6 6 6
11 1 17 -2 13 -5z m2838 -12 c-3 -3 -11 0 -18 7 -9 10 -8 11 6 5 10 -3 15 -9
12 -12z m171 6 c4 -6 3 -8 -2 -5 -14 8 -29 -3 -53 -43 -11 -19 -21 -29 -21
-21 0 17 47 81 60 81 5 0 12 -5 16 -12z m-4667 -19 c-6 -11 -9 -45 -7 -74 3
-62 -11 -58 -19 4 -4 28 -1 48 11 66 20 30 31 33 15 4z m220 -4 c-8 -8 -30
-19 -48 -25 -28 -8 -31 -7 -21 5 7 8 23 15 36 15 12 0 26 5 29 10 3 6 9 10 13
10 3 0 -1 -7 -9 -15z m1175 -6 c-3 -5 -10 -7 -15 -3 -5 3 -7 10 -3 15 3 5 10
7 15 3 5 -3 7 -10 3 -15z m3266 7 c0 -2 -8 -10 -17 -17 -16 -13 -17 -12 -4 4
13 16 21 21 21 13z m126 -25 c-4 -5 -3 -11 1 -14 5 -2 3 -2 -4 -1 -10 3 -28
-23 -25 -37 1 -4 -8 -15 -18 -24 -11 -10 -20 -14 -20 -9 0 11 59 94 66 94 3 0
3 -4 0 -9z m124 -96 c18 -49 39 -104 46 -121 l13 -32 55 20 55 21 -15 28 c-15
30 -30 40 -20 13 3 -9 2 -12 -5 -9 -5 4 -7 14 -4 24 3 11 -14 44 -45 90 -27
39 -45 69 -39 65 6 -4 41 -52 77 -108 36 -55 69 -104 74 -107 5 -3 -8 -9 -29
-12 -38 -7 -68 -20 -133 -60 -26 -16 -32 -17 -22 -4 8 9 23 19 33 22 14 5 17
10 11 18 -5 7 -26 55 -45 107 -20 52 -41 109 -47 125 -6 17 -7 26 -2 20 5 -5
24 -50 42 -100z m-4830 57 c0 -15 -2 -15 -10 -2 -13 20 -13 33 0 25 6 -3 10
-14 10 -23z m990 -52 c5 0 10 -8 11 -17 0 -10 3 -13 5 -7 6 15 111 1 128 -17
7 -7 26 -36 40 -64 15 -27 19 -39 9 -25 -39 54 -75 90 -84 84 -6 -3 -5 -11 2
-20 6 -7 14 -12 18 -10 3 2 7 -7 7 -20 1 -13 -2 -24 -7 -24 -5 0 -9 7 -9 15 0
8 -2 15 -4 15 -2 0 -13 3 -23 6 -17 5 -17 5 0 -6 22 -14 22 -27 -3 -35 -16 -5
-17 -10 -10 -31 5 -13 8 -24 5 -24 -2 0 0 -13 5 -30 12 -43 5 -37 -28 20 -16
27 -31 48 -33 46 -2 -2 -4 20 -5 49 0 33 3 52 9 48 6 -3 7 -1 3 6 -4 6 -11 9
-16 6 -5 -3 -13 3 -19 12 -10 17 -10 17 -12 -2 -1 -14 -4 -11 -9 10 -20 73
-21 80 -6 48 8 -18 20 -33 26 -33z m750 47 c0 -2 -10 -12 -22 -23 l-23 -19 19
23 c18 21 26 27 26 19z m-1883 -26 c0 -11 -5 -17 -11 -14 -5 4 -7 0 -4 -9 4
-8 2 -21 -4 -29 -8 -11 -8 -9 -4 6 6 19 6 20 -9 1 -13 -17 -13 -64 0 -103 2
-7 -7 -24 -20 -37 -21 -21 -26 -22 -36 -9 -9 10 -9 17 -2 21 6 4 13 16 17 28
5 18 1 20 -34 22 -29 2 -49 -3 -67 -18 -14 -11 -29 -18 -32 -14 -3 3 2 10 12
15 19 11 23 39 5 39 -17 0 -48 -31 -48 -48 0 -12 -4 -12 -20 3 -17 16 -20 16
-20 2 0 -9 5 -19 10 -22 13 -8 3 -26 -13 -24 -19 3 -47 -12 -42 -22 3 -4 -4
-13 -15 -19 -11 -6 -20 -16 -20 -23 -1 -21 -104 -127 -127 -132 -30 -5 -29 1
7 32 17 13 30 31 30 39 0 8 16 24 35 36 18 13 38 32 43 43 17 34 82 104 125
133 23 16 80 45 127 65 47 21 92 42 100 47 8 5 16 9 17 9 1 1 1 -8 0 -18z
m4671 -96 c12 -15 19 -31 16 -36 -3 -5 2 -9 10 -9 9 0 31 -33 55 -85 55 -114
57 -127 29 -150 -15 -13 -18 -14 -10 -3 8 10 9 19 3 22 -5 3 -11 1 -13 -6 -3
-7 -7 -5 -11 6 -4 10 -3 15 3 11 19 -12 10 19 -16 57 -21 30 -30 36 -40 27
-10 -8 -14 -8 -14 0 0 10 13 15 32 13 3 -1 12 6 20 15 7 9 8 14 1 10 -7 -4
-10 -1 -9 10 2 10 1 13 -1 8 -2 -6 -13 -16 -24 -23 -19 -12 -20 -11 -14 10 4
13 8 25 9 28 0 3 -3 5 -9 5 -5 0 -9 -3 -8 -7 1 -3 -11 -11 -27 -17 l-30 -10 0
55 c0 51 5 60 33 55 5 -1 5 3 2 9 -4 6 -13 9 -21 6 -11 -4 -14 6 -14 47 l1 52
13 -36 c7 -21 23 -49 34 -64z m236 34 c3 -31 18 -79 32 -100 3 -5 3 -9 0 -9
-3 0 -12 12 -20 28 -9 16 -15 21 -16 11 0 -9 9 -24 20 -34 11 -10 17 -21 14
-26 -2 -5 5 -18 16 -29 11 -11 18 -26 14 -31 -5 -8 -9 -8 -13 0 -5 7 -20 -8
-39 -38 -18 -27 -32 -51 -32 -54 0 -3 -5 -18 -12 -34 -6 -15 -10 -38 -9 -50 1
-13 -1 -23 -6 -23 -5 0 -9 -10 -9 -22 -1 -95 -5 -132 -14 -118 -14 22 -2 145
20 218 26 84 26 116 -2 136 -16 11 -18 14 -5 10 16 -6 18 -1 16 45 -2 29 -7
55 -12 58 -6 4 -7 0 -2 -8 6 -10 5 -11 -3 -4 -15 14 -21 56 -11 80 4 11 8 14
10 8 1 -7 3 -17 4 -23 1 -5 3 -12 4 -15 0 -3 1 -8 2 -12 0 -5 7 -15 15 -24 8
-9 11 -19 7 -24 -5 -4 -2 -5 5 -1 10 6 10 11 1 22 -9 11 -8 14 4 14 18 0 16
34 -3 85 -10 27 -10 29 5 14 8 -8 17 -31 19 -50z m-3074 47 c0 -2 -8 -10 -17
-17 -16 -13 -17 -12 -4 4 13 16 21 21 21 13z m3036 -15 c-4 -5 0 -11 6 -14 7
-2 9 -8 5 -13 -9 -10 -28 16 -21 28 3 4 7 8 10 8 3 0 3 -4 0 -9z m-46 -84 c0
-4 -6 -2 -13 5 -8 7 -14 17 -14 23 0 5 -4 19 -7 30 -4 11 2 4 13 -15 11 -19
20 -39 21 -43z m-3424 31 c-5 -32 -5 -32 8 -9 20 35 25 11 5 -27 l-16 -32 -6
28 c-6 29 1 72 10 72 3 0 3 -15 -1 -32z m3479 2 c3 -5 2 -10 -4 -10 -5 0 -13
5 -16 10 -3 6 -2 10 4 10 5 0 13 -4 16 -10z m-3165 -35 c25 -13 41 -24 35 -24
-5 0 -30 11 -55 24 -25 13 -40 24 -35 24 6 0 30 -11 55 -24z m620 15 c-8 -5
-19 -10 -25 -10 -5 0 -3 5 5 10 8 5 20 10 25 10 6 0 3 -5 -5 -10z m-825 -20
c3 -5 0 -7 -9 -4 -21 8 -56 -65 -56 -118 0 -25 7 -54 17 -68 15 -22 15 -24 1
-12 -26 21 -42 84 -39 150 2 42 67 82 86 52z m3342 -77 c-3 -10 -5 -2 -5 17 0
19 2 27 5 18 2 -10 2 -26 0 -35z m-2835 -17 c-23 -25 -65 -69 -93 -98 l-52
-53 40 50 c58 71 128 145 137 145 5 0 -10 -20 -32 -44z m2943 24 c-3 -5 -1
-10 5 -10 6 0 8 -5 4 -11 -4 -8 -9 -7 -15 2 -7 12 -3 29 7 29 3 0 2 -4 -1 -10z
m-285 -30 c0 -5 -5 -10 -11 -10 -5 0 -7 5 -4 10 3 6 8 10 11 10 2 0 4 -4 4
-10z m346 -26 c-17 -17 -22 -54 -7 -54 12 0 7 -30 -9 -60 -6 -12 -9 -29 -5
-37 4 -12 13 -4 36 32 16 26 33 45 36 41 4 -3 -3 -16 -14 -29 -11 -12 -26 -32
-32 -45 -7 -14 -17 -20 -24 -15 -18 11 -38 13 -32 2 3 -4 -6 -46 -20 -91 -14
-46 -31 -119 -39 -163 -12 -68 -14 -73 -15 -35 0 41 18 145 34 196 5 15 2 21
-8 21 -9 0 -13 -6 -10 -14 3 -7 -2 -24 -11 -38 -9 -14 -15 -29 -13 -33 3 -4 1
-16 -3 -27 -8 -21 -11 5 -13 100 -2 63 63 248 81 231 2 -3 21 8 41 24 35 30
57 25 27 -6z m185 9 c11 -15 11 -16 -1 -5 -19 17 -75 15 -110 -3 -38 -20 -40
-11 -2 9 38 21 96 20 113 -1z m-4060 -88 c12 -42 26 -78 31 -81 4 -3 8 -13 8
-23 0 -10 7 -24 16 -32 8 -7 22 -26 30 -43 8 -17 9 -22 2 -11 -7 11 -25 31
-41 46 -18 18 -25 33 -21 46 3 11 0 9 -9 -6 -12 -20 -15 -21 -21 -6 -3 9 -4
20 -1 25 2 4 -2 38 -10 76 -16 75 -17 84 -11 84 2 0 14 -34 27 -75z m115 5
c36 -22 43 -31 31 -36 -9 -3 -30 1 -47 9 -32 17 -33 16 -24 -7 3 -9 11 -13 18
-9 6 3 8 3 4 -2 -4 -4 -2 -15 5 -23 10 -13 9 -14 -3 -10 -8 2 -24 20 -35 40
-11 19 -26 45 -34 58 -13 22 -12 22 13 16 14 -3 47 -20 72 -36z m3859 12 c5
-14 4 -14 -13 1 -10 9 -22 14 -27 10 -4 -5 -5 -3 -1 4 8 15 32 7 41 -15z m0
-32 c17 -18 17 -20 2 -14 -9 3 -17 10 -17 16 0 5 -5 6 -12 2 -7 -4 -8 -3 -4 4
9 16 10 15 31 -8z m-3765 6 c0 -2 -8 -10 -17 -17 -16 -13 -17 -12 -4 4 13 16
21 21 21 13z m3864 -12 c3 -8 2 -12 -4 -9 -6 3 -10 10 -10 16 0 14 7 11 14 -7z
m-5433 -8 c-6 -7 -9 -20 -5 -29 3 -8 1 -18 -5 -22 -6 -3 -11 -1 -11 6 0 7 -12
2 -27 -12 -16 -15 -12 -6 12 24 22 26 41 47 43 47 3 0 -1 -6 -7 -14z m5366
-18 c-3 -7 -5 -2 -5 12 0 14 2 19 5 13 2 -7 2 -19 0 -25z m-3944 -25 c9 -24
13 -43 8 -43 -5 0 -11 10 -14 23 -3 12 -9 33 -13 47 -10 37 0 21 19 -27z
m3456 -8 c0 -5 -6 1 -14 15 -8 14 -14 30 -14 35 0 6 6 -1 14 -15 8 -14 14 -29
14 -35z m-2570 -30 c-65 -79 -81 -93 -52 -47 15 25 103 122 110 122 2 0 -24
-34 -58 -75z m-734 6 c-46 -29 -75 -65 -90 -112 -10 -34 -15 -40 -20 -27 -17
43 73 158 124 158 10 0 4 -7 -14 -19z m3390 -134 c37 -70 66 -130 64 -132 -2
-2 -37 60 -78 138 -40 78 -69 138 -63 132 5 -5 40 -68 77 -138z m55 133 c0 -5
-2 -10 -4 -10 -3 0 -8 5 -11 10 -3 6 -1 10 4 10 6 0 11 -4 11 -10z m343 -20
c3 -11 1 -18 -4 -14 -5 3 -9 12 -9 20 0 20 7 17 13 -6z m-5403 6 c0 -3 -4 -8
-10 -11 -5 -3 -10 -1 -10 4 0 6 5 11 10 11 6 0 10 -2 10 -4z m5243 -26 c-3
-12 -8 -19 -11 -16 -5 6 5 36 12 36 2 0 2 -9 -1 -20z m-5283 0 c0 -5 -5 -10
-11 -10 -5 0 -7 5 -4 10 3 6 8 10 11 10 2 0 4 -4 4 -10z m5044 1 c4 -5 -3 -7
-14 -4 -23 6 -26 13 -6 13 8 0 17 -4 20 -9z m302 -6 c-3 -9 3 -24 14 -35 21
-21 25 -31 13 -29 -19 3 -33 -2 -33 -12 0 -5 5 -7 11 -4 12 8 57 -30 70 -60 8
-16 9 -15 4 7 -3 15 0 30 5 33 6 4 10 3 9 -2 -1 -4 -1 -28 0 -53 1 -32 4 -41
10 -30 6 8 8 17 5 21 -5 9 15 23 23 16 9 -10 -38 -68 -49 -61 -7 4 -8 2 -4 -4
4 -7 -10 -30 -31 -53 -21 -22 -38 -45 -38 -49 0 -5 -6 -15 -14 -22 -12 -11
-13 -10 -7 6 7 19 6 19 -14 1 -24 -22 -39 -12 -22 15 16 27 15 50 -2 50 -23 0
-28 17 -21 68 5 38 10 48 26 49 11 1 18 -1 15 -5 -2 -4 6 -16 16 -27 20 -20
20 -20 4 13 -9 17 -23 32 -31 32 -20 0 -19 26 0 34 8 3 15 1 15 -3 0 -5 -6
-12 -12 -14 -10 -4 -10 -6 -1 -6 21 -2 27 22 8 35 -20 15 -14 58 13 86 21 21
26 22 18 3z m225 -15 c0 -3 2 -13 4 -22 2 -10 -1 -21 -7 -24 -5 -4 -8 2 -6 14
2 11 -6 30 -17 42 l-20 23 23 -14 c12 -8 22 -16 23 -19z m-487 -45 l6 -30 -14
25 c-8 14 -12 28 -9 33 7 11 9 7 17 -28z m396 -10 c0 -5 -5 -3 -10 5 -5 8 -10
20 -10 25 0 6 5 3 10 -5 5 -8 10 -19 10 -25z m68 10 c-3 -3 -9 2 -12 12 -6 14
-5 15 5 6 7 -7 10 -15 7 -18z m-5548 -31 c0 -8 5 -14 10 -14 6 0 10 -9 10 -20
0 -11 5 -20 10 -20 6 0 10 -8 10 -18 0 -10 6 -24 13 -31 10 -11 9 -13 -1 -7
-7 4 -29 40 -49 79 -20 41 -29 66 -19 58 9 -7 16 -20 16 -27z m5257 4 c-3 -7
-5 -2 -5 12 0 14 2 19 5 13 2 -7 2 -19 0 -25z m-100 -45 c-2 -16 -4 -5 -4 22
0 28 2 40 4 28 2 -13 2 -35 0 -50z m-3634 -2 l4 -26 9 25 8 25 7 -25 c4 -14 8
-43 8 -65 1 -22 10 -54 19 -71 9 -17 27 -50 40 -74 13 -23 21 -44 19 -47 -3
-2 -8 4 -11 14 -3 10 -22 43 -42 73 -20 30 -33 46 -29 35 4 -11 9 -29 12 -40
4 -16 3 -17 -6 -5 -6 8 -11 10 -11 5 0 -6 5 -16 12 -23 6 -6 12 -40 13 -74 1
-59 1 -61 -11 -33 -7 17 -20 64 -29 105 -30 132 -43 178 -46 150 -1 -18 -4
-13 -8 15 l-7 40 -4 -47 c-3 -25 -2 -44 1 -42 3 1 6 -3 6 -10 0 -7 -7 -13 -15
-13 -12 0 -13 14 -7 76 4 42 12 79 18 83 16 10 45 -19 50 -51z m102 32 c-1
-16 -3 -39 -4 -53 -1 -18 -4 -21 -10 -12 -5 9 -8 4 -7 -16 1 -17 5 -28 9 -25
5 3 7 -6 5 -20 -2 -15 5 -35 17 -49 43 -51 47 -61 11 -28 -21 19 -44 47 -52
62 -19 36 -18 113 2 143 21 33 31 32 29 -2z m-199 -45 c-14 -32 -12 -107 2
-118 4 -3 24 -24 45 -48 35 -40 37 -46 32 -90 -3 -26 -2 -42 3 -35 4 7 8 -6 8
-28 2 -45 26 -78 73 -95 29 -11 29 -11 20 13 -13 35 -10 42 6 13 8 -14 12 -34
8 -45 -3 -11 -3 -17 1 -14 3 3 25 -13 49 -35 23 -23 84 -63 135 -91 50 -27 92
-53 92 -57 0 -4 -21 5 -47 20 -27 15 -61 34 -78 42 -16 8 -48 29 -70 46 -42
33 -77 37 -53 6 12 -15 11 -16 -4 -3 -10 7 -15 17 -13 22 3 4 -8 18 -24 30
-17 12 -28 26 -25 30 2 4 -1 11 -7 15 -8 4 -9 3 -5 -4 14 -23 -11 -12 -42 19
-30 30 -33 37 -45 146 -2 18 0 30 5 27 16 -10 7 9 -19 40 -14 17 -30 30 -34
29 -5 -2 -18 20 -30 47 -24 55 -27 57 -35 14 -11 -58 4 -91 56 -128 46 -33 50
-39 50 -77 0 -66 20 -117 59 -150 68 -56 160 -120 179 -124 22 -4 121 -54 109
-55 -4 0 -31 11 -60 25 -29 14 -43 19 -32 10 23 -18 31 -70 14 -91 -10 -12 -9
-13 5 -8 9 3 17 10 17 15 1 5 2 15 3 22 1 6 -3 18 -8 26 -9 12 -8 13 4 6 8 -5
21 -10 28 -11 18 -3 29 -14 13 -14 -7 0 -9 -5 -6 -10 4 -6 3 -9 -2 -8 -4 2
-18 -7 -30 -19 -34 -34 -46 -29 -41 16 3 38 2 39 -14 24 -10 -9 -15 -20 -12
-25 3 -4 1 -7 -4 -6 -6 2 -10 -1 -10 -7 0 -5 4 -9 9 -8 4 2 5 -5 2 -14 -5 -11
-3 -14 6 -8 9 5 12 2 9 -11 -4 -21 -45 -22 -63 -2 -7 8 -6 9 5 3 11 -6 11 -4
-2 11 -21 24 -67 32 -47 8 7 -8 19 -12 28 -9 12 5 13 3 5 -5 -15 -15 -65 -20
-89 -8 -16 9 -18 8 -7 -3 16 -17 15 -41 -3 -65 -14 -18 -14 -18 -15 11 0 23 3
26 10 15 8 -12 10 -10 10 8 0 15 -4 21 -12 16 -8 -5 -9 0 -5 15 3 12 -1 27 -9
36 -16 16 -7 25 22 21 12 -2 21 -14 25 -32 4 -19 7 -22 8 -9 2 33 47 122 66
129 22 8 41 -7 49 -40 7 -28 26 -23 26 7 0 13 -4 18 -12 13 -6 -4 -8 -3 -5 3
8 13 -26 40 -43 35 -27 -8 -53 -36 -71 -77 -10 -22 -19 -32 -19 -23 0 16 -26
18 -49 4 -5 -3 -14 1 -21 9 -7 8 -9 15 -5 15 4 0 2 7 -5 15 -10 12 -10 18 0
30 15 19 3 38 -21 32 -13 -4 -33 11 -70 51 -51 56 -71 91 -85 147 -7 26 -8 27
-11 8 -5 -24 37 -113 73 -156 13 -16 24 -25 24 -21 0 4 14 -8 30 -26 17 -18
30 -28 30 -22 0 7 7 12 15 12 24 0 17 -20 -10 -30 -14 -5 -25 -13 -25 -18 0
-14 36 -43 43 -35 4 3 7 -1 7 -11 0 -10 -5 -14 -12 -10 -7 4 -8 3 -4 -5 4 -6
12 -8 18 -5 8 5 9 1 5 -10 -4 -9 -3 -15 2 -11 12 7 19 -14 13 -41 -3 -18 -11
-10 -38 43 -18 36 -40 73 -47 82 -8 9 -13 26 -12 37 1 15 -4 21 -14 19 -9 -1
-22 2 -28 8 -15 11 -17 31 -3 22 16 -10 11 1 -7 16 -14 12 -16 12 -9 -1 4 -8
-2 -4 -13 10 -11 14 -19 31 -16 38 3 7 1 10 -4 7 -5 -3 -12 -1 -16 5 -4 6 -11
7 -17 4 -7 -5 -8 -2 -4 5 5 7 1 20 -8 30 -18 20 -42 84 -50 135 -8 49 5 77 53
115 l40 32 -4 -53 -5 -53 14 55 c8 30 10 56 5 58 -4 2 9 27 30 55 21 29 45 67
55 85 9 17 18 32 21 32 2 0 -2 -15 -9 -32z m3701 -20 c-3 -8 -6 -5 -6 6 -1 11
2 17 5 13 3 -3 4 -12 1 -19z m560 -91 c24 -49 40 -86 35 -83 -5 3 -17 23 -27
45 l-18 40 -51 -48 c-89 -85 -278 -233 -228 -179 12 13 22 29 22 34 0 6 20 24
45 42 25 17 44 35 43 39 0 5 2 16 7 26 7 17 8 17 21 0 8 -11 17 -14 21 -8 5 6
29 27 56 48 26 21 47 44 47 51 0 7 -11 30 -25 50 -14 21 -21 35 -15 31 5 -3
10 2 11 12 0 14 2 15 6 3 3 -8 26 -55 50 -103z m-3860 71 c-11 -9 -17 -32 -20
-78 -3 -63 -3 -62 -4 13 0 71 1 77 20 77 19 0 19 -1 4 -12z m3293 -91 c0 -4
-16 4 -35 19 -45 34 -45 41 0 12 19 -13 35 -27 35 -31z m362 35 c-7 -5 -10
-16 -6 -25 7 -19 -6 -23 -23 -6 -8 8 -16 8 -30 0 -10 -6 -12 -11 -5 -11 6 0
-6 -16 -27 -35 -22 -20 -49 -55 -60 -78 -12 -23 -21 -36 -21 -28 0 22 49 101
63 101 8 0 8 3 -2 9 -10 6 -5 15 21 34 33 25 73 45 93 46 6 0 4 -3 -3 -7z
m-4082 -39 c0 -9 18 -35 40 -59 22 -24 40 -49 40 -56 0 -18 -79 68 -90 98 -13
33 -13 47 0 39 6 -3 10 -13 10 -22z m3895 -2 c3 -6 -4 -15 -15 -21 -22 -12
-23 -10 -14 14 7 18 20 21 29 7z m201 -69 c-4 -33 -57 -68 -81 -55 -13 8 -11
12 12 23 15 8 33 18 39 22 15 11 6 50 -10 41 -6 -4 -4 1 3 11 14 17 16 17 27
1 7 -9 11 -29 10 -43z m-31 9 c3 -5 0 -13 -6 -17 -7 -4 -9 -3 -5 4 3 5 0 13
-6 15 -9 4 -10 6 -1 6 6 1 14 -3 18 -8z m-4233 -182 c4 -3 10 -16 13 -28 2
-13 9 -29 15 -37 12 -14 4 -38 -10 -29 -4 3 -11 -2 -14 -11 -4 -9 -9 -14 -13
-11 -3 4 0 13 6 21 10 12 10 20 0 38 -17 31 -38 162 -30 196 4 19 8 3 15 -53
5 -44 13 -83 18 -86z m4533 125 c9 -15 12 -23 6 -20 -11 7 -35 46 -28 46 3 0
12 -12 22 -26z m-1455 -4 c8 -5 11 -10 5 -10 -5 0 -17 5 -25 10 -8 5 -10 10
-5 10 6 0 17 -5 25 -10z m47 -16 c-3 -3 -12 -4 -19 -1 -8 3 -5 6 6 6 11 1 17
-2 13 -5z m1228 -4 c13 -1 -16 -18 -80 -47 -27 -13 -41 -16 -31 -8 11 8 24 15
29 15 4 0 6 4 2 9 -3 5 0 13 6 17 8 4 9 3 5 -4 -4 -7 -2 -12 4 -12 7 0 14 9
17 19 3 11 12 18 21 16 10 -2 22 -4 27 -5z m-1108 -26 c-3 -3 -12 -4 -19 -1
-8 3 -5 6 6 6 11 1 17 -2 13 -5z m1323 -10 c16 -10 18 -13 5 -8 -11 4 -36 10
-55 14 -34 8 -34 8 -5 8 17 1 41 -6 55 -14z m-4120 -29 c0 -5 -5 -3 -10 5 -5
8 -10 20 -10 25 0 6 5 3 10 -5 5 -8 10 -19 10 -25z m3183 6 c26 -1 47 -4 47
-9 0 -4 21 -6 48 -5 35 2 42 1 27 -6 -17 -8 -15 -10 14 -10 19 -1 32 -3 29 -6
-5 -6 -320 23 -326 30 -14 14 15 20 60 14 29 -4 74 -8 101 -8z m742 -21 c-81
-40 -151 -89 -110 -75 15 5 17 3 9 -5 -9 -9 -17 -9 -32 -1 -15 8 -23 8 -28 -1
-5 -7 -3 -8 5 -3 9 5 9 2 0 -13 -9 -14 -17 -18 -25 -12 -6 6 -15 6 -19 2 -5
-4 2 7 16 24 44 56 104 94 171 109 97 21 98 18 13 -25z m-3665 3 c-25 -14 -52
-32 -61 -39 -18 -16 -33 -18 -24 -4 8 13 106 70 120 70 6 0 -10 -12 -35 -27z
m2743 20 c-7 -2 -19 -2 -25 0 -7 3 -2 5 12 5 14 0 19 -2 13 -5z m997 -13 c-8
-5 -19 -10 -25 -10 -5 0 -3 5 5 10 8 5 20 10 25 10 6 0 3 -5 -5 -10z m-230 -4
c0 -2 -8 -10 -17 -17 -16 -13 -17 -12 -4 4 13 16 21 21 21 13z m255 -6 c-3 -5
-1 -10 6 -10 37 0 -61 -38 -116 -46 -11 -1 -20 -3 -20 -4 0 -1 -13 -4 -28 -6
l-28 -3 26 21 c21 16 28 18 40 8 8 -7 16 -10 16 -6 1 3 2 9 3 14 3 15 18 32
29 32 6 0 3 -6 -8 -13 -16 -13 -15 -14 16 -15 24 -1 29 2 19 9 -11 7 -6 8 15
4 17 -3 24 -2 16 1 -11 5 -11 8 0 15 18 11 22 11 14 -1z m146 -7 c13 -16 12
-17 -3 -4 -10 7 -18 15 -18 17 0 8 8 3 21 -13z m-64 1 c-3 -3 -12 -4 -19 -1
-8 3 -5 6 6 6 11 1 17 -2 13 -5z m-3809 -34 c-21 -17 -51 -47 -69 -68 -17 -20
-26 -28 -20 -17 19 36 101 115 119 115 4 0 -10 -14 -30 -30z m3887 0 c-3 -5
-12 -10 -18 -10 -7 0 -6 4 3 10 19 12 23 12 15 0z m-112 -7 c-7 -2 -21 -2 -30
0 -10 3 -4 5 12 5 17 0 24 -2 18 -5z m-7045 -18 c-2 -6 -7 -10 -13 -10 -5 0
-16 -4 -22 -8 -18 -11 -16 -1 3 18 17 17 38 17 32 0z m7176 0 c3 -8 1 -15 -4
-15 -6 0 -10 7 -10 15 0 8 2 15 4 15 2 0 6 -7 10 -15z m-227 -1 c-3 -3 -12 -4
-19 -1 -8 3 -5 6 6 6 11 1 17 -2 13 -5z m-88 -27 c-2 -2 -24 -18 -49 -36 l-45
-33 39 36 c22 20 44 36 49 36 6 0 8 -1 6 -3z m-4280 -44 c-8 -9 -16 -10 -22
-4 -13 13 0 31 19 24 11 -4 12 -8 3 -20z m4658 -73 c39 -36 99 -79 134 -97 35
-18 80 -44 99 -59 l35 -26 -30 6 c-92 20 -222 36 -249 31 -17 -3 -123 -7 -236
-9 -199 -4 -201 -4 -55 4 83 5 164 11 180 15 40 9 61 12 120 15 l50 2 -48 8
c-56 10 -124 50 -124 74 0 19 2 20 35 2 15 -7 45 -21 67 -30 l40 -17 -25 20
c-14 12 -31 21 -38 21 -7 0 -10 5 -7 10 3 6 1 10 -4 10 -6 0 -11 -5 -11 -11 0
-5 -5 -7 -12 -3 -9 6 -9 9 0 12 14 4 6 22 -9 22 -6 0 -7 -6 -3 -12 5 -10 3
-10 -7 0 -8 7 -14 17 -14 21 0 4 -13 20 -30 36 l-30 28 35 -27 c47 -35 129
-78 142 -74 9 3 -55 66 -113 111 -23 18 -23 18 8 0 17 -10 62 -47 100 -83z
m-547 86 c0 -2 -8 -10 -17 -17 -16 -13 -17 -12 -4 4 13 16 21 21 21 13z
m-3420 -10 c0 -2 -8 -10 -17 -17 -16 -13 -17 -12 -4 4 13 16 21 21 21 13z
m3590 1 c0 -2 -15 -13 -32 -26 l-33 -22 28 25 c26 24 37 31 37 23z m-4200
-101 c0 -5 -7 -3 -15 4 -8 7 -15 9 -15 5 0 -4 -7 -2 -15 5 -9 7 -14 19 -11 27
3 8 2 11 -4 8 -11 -7 -32 29 -23 39 7 7 82 -73 83 -88z m-161 46 c-6 -18 -15
-32 -21 -32 -5 0 -7 -4 -4 -8 8 -14 -25 -54 -40 -48 -8 3 -13 0 -11 -6 1 -6
-29 -21 -68 -34 -38 -12 -128 -41 -200 -64 -71 -22 -148 -50 -169 -60 -22 -11
-42 -18 -44 -15 -13 13 198 91 364 135 88 23 141 63 179 134 23 42 29 41 14
-2z m4503 17 c26 -14 41 -11 34 7 -3 9 -2 12 5 9 6 -4 8 -13 5 -20 -2 -7 10
-20 28 -30 18 -10 33 -24 33 -31 0 -19 -4 -18 -46 15 -20 15 -53 34 -74 42
-37 13 -42 12 -90 -15 -58 -32 -58 -29 -1 14 39 29 62 31 106 9z m-4603 -26
c-17 -21 -39 -38 -46 -39 -8 -2 -20 -9 -26 -16 -26 -31 -97 -69 -177 -97 -116
-39 -189 -68 -224 -88 -28 -15 -29 -15 -23 1 4 10 7 22 7 27 0 4 7 5 17 2 12
-5 14 -3 8 8 -7 11 -5 11 10 -1 10 -8 16 -10 12 -3 -4 7 0 16 10 22 13 8 14
10 4 11 -11 0 -9 4 5 15 10 8 23 15 28 15 6 0 1 -7 -10 -15 -24 -18 -4 -19 38
-1 18 8 48 20 66 27 18 6 31 13 29 15 -2 3 -23 -3 -47 -11 -70 -25 -70 -16 0
11 43 16 78 23 102 20 21 -2 40 0 44 5 3 5 -3 6 -13 3 -14 -5 -15 -4 -4 4 8 6
22 7 30 3 16 -8 66 11 56 21 -3 3 8 11 24 18 17 6 32 10 34 9 2 -2 18 13 36
34 18 20 35 37 38 37 3 0 -10 -17 -28 -37z m4707 -10 c-7 -7 -46 16 -46 28 0
5 11 2 25 -7 14 -9 24 -19 21 -21z m-2868 20 c-15 -2 -42 -2 -60 0 -18 2 -6 4
27 4 33 0 48 -2 33 -4z m-674 -11 c3 -5 -17 -8 -43 -8 -34 0 -61 -8 -97 -29
-111 -64 -118 -66 -162 -62 -24 3 -48 9 -54 15 -6 6 6 6 35 -1 41 -9 49 -8 94
19 91 54 138 73 180 74 23 0 44 -4 47 -8z m-1145 -38 c-42 -44 -106 -80 -106
-59 0 8 4 12 9 9 9 -6 86 45 107 70 8 9 16 16 19 16 3 0 -10 -16 -29 -36z
m1248 -24 c15 0 24 -3 20 -6 -14 -14 -73 8 -92 34 l-19 27 33 -27 c18 -16 44
-28 58 -28z m3329 38 c-1 -7 -1 -10 1 -5 10 16 37 5 110 -43 42 -27 74 -50 72
-51 -2 0 -13 -3 -24 -5 -11 -3 -65 -6 -120 -9 -65 -2 -88 -1 -65 4 19 5 29 9
21 10 -8 0 -20 9 -28 19 -14 16 -14 16 -9 -1 3 -11 2 -16 -4 -12 -6 3 -7 18
-4 32 6 22 4 25 -9 20 -14 -5 -15 -3 -4 13 6 11 17 20 24 20 7 0 13 5 13 10 0
6 7 10 15 10 8 0 13 -6 11 -12z m-4481 -28 c-9 -16 -18 -30 -21 -30 -2 0 2 14
11 30 9 17 18 30 21 30 2 0 -2 -13 -11 -30z m179 14 c3 -8 2 -12 -4 -9 -6 3
-10 10 -10 16 0 14 7 11 14 -7z m4216 -18 c-27 -45 -56 -70 -65 -56 -4 6 -1 9
7 8 8 -2 14 8 16 26 2 18 11 30 23 33 10 3 16 9 13 14 -3 5 2 9 10 9 13 0 12
-5 -4 -34z m-4250 9 c0 13 36 -24 66 -66 23 -34 25 -41 13 -56 -13 -16 -12
-17 3 -5 14 11 18 11 26 -5 6 -10 14 -36 18 -58 6 -33 8 -36 15 -20 7 18 8 18
8 2 1 -26 41 -116 69 -157 l24 -35 -30 35 c-35 39 -43 33 -12 -10 26 -37 96
-70 147 -70 51 0 95 18 155 64 63 49 75 52 277 87 97 17 253 48 346 69 208 48
432 83 414 65 -3 -2 -47 -9 -98 -15 -89 -11 -133 -20 -441 -88 -74 -17 -182
-38 -240 -47 -140 -22 -163 -30 -249 -86 -83 -55 -137 -74 -184 -63 -50 10
-102 40 -132 76 -16 18 -31 32 -34 31 -3 -1 -7 8 -7 20 -1 12 -5 33 -8 47 -4
14 2 7 13 -15 11 -22 20 -35 21 -29 0 6 -7 25 -16 43 -15 30 -34 34 -34 6 0
-7 -27 -64 -59 -127 -33 -62 -72 -144 -87 -181 -14 -37 -28 -66 -31 -64 -6 7
33 100 108 256 l71 146 -18 53 c-18 53 -41 85 -30 41 3 -13 3 -18 0 -10 -5 11
-8 11 -15 0 -6 -10 -8 -7 -7 11 2 18 -1 24 -12 22 -8 -2 -12 0 -8 3 8 9 -14
57 -48 102 -27 36 -31 52 -9 33 8 -7 15 -9 15 -5z m916 -27 c32 -29 58 -44 87
-49 l42 -6 -37 -2 c-30 -1 -46 7 -83 39 -38 33 -51 39 -73 34 -38 -10 -75 -29
-112 -61 -28 -23 -43 -27 -99 -29 -56 -2 -59 -1 -21 5 25 3 77 24 115 46 56
32 109 58 133 64 1 1 23 -18 48 -41z m3252 22 c-7 -10 -14 -17 -17 -15 -4 4
18 35 25 35 2 0 -1 -9 -8 -20z m-4263 -30 c-9 -18 -19 -30 -21 -27 -3 3 2 19
11 37 9 18 19 30 21 27 3 -3 -2 -19 -11 -37z m26 -28 c-11 -23 -25 -43 -30
-46 -5 -3 3 16 18 43 31 59 42 61 12 3z m178 34 c8 -9 8 -16 2 -20 -6 -4 -15
3 -21 14 -12 23 2 27 19 6z m714 -35 c-55 -40 -85 -85 -91 -136 -4 -41 -3 -44
22 -48 l26 -4 -27 1 c-25 1 -28 5 -31 38 -4 48 34 115 85 151 21 15 42 27 47
27 5 0 -9 -13 -31 -29z m-833 -17 c-24 -62 -150 -230 -150 -200 0 5 -7 3 -15
-4 -8 -7 -13 -16 -10 -20 2 -4 -10 -20 -28 -36 -18 -16 -24 -19 -13 -6 11 12
15 22 11 22 -5 0 8 18 30 40 21 21 42 37 46 35 14 -9 119 150 119 180 0 8 4
15 10 15 6 0 6 -9 0 -26z m518 -1 c22 -19 35 -40 39 -63 6 -42 -4 -37 -11 5
-5 29 -38 65 -59 65 -5 0 -2 -9 7 -19 10 -11 15 -25 10 -32 -4 -7 -3 -10 3 -6
6 4 14 0 17 -8 3 -9 -3 -20 -13 -27 -11 -6 -17 -17 -14 -24 4 -10 -2 -11 -24
-5 -55 17 -84 34 -71 43 10 6 10 8 -1 8 -11 0 -9 4 5 15 23 17 34 19 34 4 0
-5 -5 -7 -12 -3 -7 5 -8 3 -2 -7 5 -8 9 -17 9 -21 0 -5 4 -8 9 -8 13 0 13 60
1 60 -5 0 -2 5 8 11 9 5 17 17 17 24 0 22 12 18 48 -12z m-714 -14 c-37 -40
-46 -44 -177 -90 -61 -22 -181 -78 -274 -128 -91 -50 -159 -83 -151 -74 11 15
11 16 -5 10 -35 -13 -6 11 60 51 83 48 173 94 173 87 0 -2 -24 -16 -52 -31
-76 -38 -170 -95 -165 -101 3 -2 45 18 94 45 148 83 243 127 356 166 79 28
113 46 130 67 12 15 26 28 31 28 6 1 -3 -13 -20 -30z m83 6 c0 -8 -5 -11 -10
-8 -6 4 -8 0 -4 -10 4 -11 2 -14 -8 -11 -8 4 -15 -3 -17 -18 -2 -13 -10 -23
-18 -23 -8 -1 -14 -6 -13 -12 1 -6 -10 -21 -25 -34 l-27 -24 25 28 24 28 -22
6 -23 6 23 12 c17 8 27 9 37 1 12 -9 13 -8 7 2 -5 9 2 24 20 43 32 34 31 33
31 14z m4308 5 c3 -5 1 -10 -4 -10 -6 0 -11 5 -11 10 0 6 2 10 4 10 3 0 8 -4
11 -10z m-4475 -35 c-14 -8 -29 -14 -35 -14 -5 0 1 6 15 14 14 8 30 14 35 14
6 0 -1 -6 -15 -14z m180 -10 c0 -10 -83 -96 -113 -117 -16 -12 1 11 39 49 73
75 74 76 74 68z m4223 -2 c-7 -2 -19 -2 -25 0 -7 3 -2 5 12 5 14 0 19 -2 13
-5z m-4880 -59 c-6 -45 -5 -46 15 -35 12 7 22 9 22 7 0 -3 -15 -14 -34 -23
-54 -28 -178 -136 -207 -179 -25 -35 -51 -103 -32 -79 4 6 24 19 43 29 19 10
44 27 56 38 13 12 21 14 21 6 0 -7 -31 -32 -69 -55 -38 -23 -66 -38 -63 -33 3
5 1 11 -5 15 -5 3 -10 1 -10 -6 0 -7 -3 -10 -6 -6 -7 7 57 117 68 117 5 0 8 6
8 13 0 6 15 22 33 34 65 45 146 111 141 116 -6 6 14 87 21 87 3 0 2 -21 -2
-46z m387 36 c-8 -5 -19 -10 -25 -10 -5 0 -3 5 5 10 8 5 20 10 25 10 6 0 3 -5
-5 -10z m729 0 c12 6 21 8 21 6 0 -10 -58 -35 -65 -28 -3 4 -5 1 -3 -6 2 -8
-8 -21 -22 -30 -22 -14 -23 -15 -13 -1 13 15 8 29 -9 29 -5 0 -6 -11 -4 -25 6
-30 -7 -40 -24 -20 -7 8 -20 15 -29 16 -9 0 -11 3 -4 5 7 3 10 11 7 19 -10 26
33 43 81 33 30 -6 50 -6 64 2z m1274 3 c-13 -2 -33 -2 -45 0 -13 2 -3 4 22 4
25 0 35 -2 23 -4z m-2043 -8 c0 -6 -76 -45 -87 -45 -4 1 12 12 37 25 50 27 50
27 50 20z m815 -25 c4 -6 10 -8 15 -5 5 3 11 1 15 -5 3 -5 16 -10 28 -11 20
-1 20 -2 -3 -9 -38 -12 -52 -11 -44 3 4 6 4 9 -1 5 -4 -4 -14 0 -22 10 -11 15
-12 13 -3 -11 5 -16 15 -38 21 -50 9 -20 9 -21 -4 -4 -8 10 -21 16 -28 15 -15
-3 -24 34 -15 58 6 16 32 19 41 4z m4289 -15 c13 -19 13 -23 2 -19 -8 3 -16
14 -19 25 -7 25 -3 24 17 -6z m110 -9 c8 -19 26 -45 40 -57 14 -13 26 -32 26
-43 0 -12 -4 -16 -8 -11 -4 6 -14 11 -22 13 -20 4 -80 45 -74 51 2 2 12 -3 21
-11 30 -25 41 -29 49 -17 4 7 3 9 -3 6 -6 -4 -27 11 -47 33 -36 41 -41 51 -29
63 15 16 34 5 47 -27z m83 -23 c51 -63 36 -62 -27 2 -39 39 -47 52 -31 48 12
-3 38 -25 58 -50z m-4774 27 c3 -11 1 -18 -4 -14 -5 3 -9 -3 -9 -12 0 -10 -2
-15 -5 -12 -6 5 4 58 10 58 1 0 5 -9 8 -20z m4354 -15 c29 -25 40 -41 36 -54
-4 -15 5 -24 36 -41 23 -11 47 -18 53 -14 7 4 8 3 4 -4 -4 -7 10 -20 34 -32
67 -34 106 -84 59 -75 -11 2 -35 13 -53 25 -19 11 -65 36 -103 55 -77 39 -108
67 -100 90 4 8 18 15 32 15 15 0 24 4 20 10 -4 6 -12 9 -19 8 -7 -2 -27 9 -45
25 -26 22 -29 27 -14 27 11 0 38 -16 60 -35z m183 -10 c19 -18 49 -40 67 -49
28 -14 63 -51 63 -66 0 -10 -58 -11 -65 -1 -3 6 6 8 22 5 21 -3 12 6 -37 37
-36 23 -73 50 -84 61 -10 11 -32 25 -48 30 -22 8 -26 13 -17 19 22 13 61 -1
99 -36z m88 25 c7 -11 11 -20 9 -20 -2 0 -12 9 -22 20 -10 11 -14 20 -9 20 5
0 15 -9 22 -20z m-4398 -25 c0 -13 -10 -34 -22 -46 -13 -12 -17 -19 -10 -15
19 11 14 1 -10 -20 -13 -12 -18 -13 -13 -4 8 13 7 13 -9 1 -15 -13 -15 -16 -2
-29 13 -13 18 -12 45 7 l30 22 7 -25 c12 -50 -32 -74 -82 -44 -31 18 -72 83
-60 95 3 3 10 -7 16 -22 6 -15 13 -25 16 -22 3 3 1 15 -6 26 -6 12 -9 21 -8
22 2 0 11 2 21 4 11 2 22 7 25 11 4 4 -1 4 -11 1 -11 -4 -16 -3 -12 3 3 6 18
10 33 11 24 0 25 1 7 9 -11 5 -14 9 -7 9 7 1 20 8 28 16 21 20 24 19 24 -10z
m-257 -42 c-3 -7 -9 -13 -15 -13 -5 0 -6 -4 -3 -10 3 -5 1 -10 -4 -10 -6 0
-10 -4 -8 -8 3 -11 -42 -97 -64 -121 -11 -11 -19 -26 -20 -33 0 -9 -2 -9 -5
-1 -3 6 10 35 29 65 19 29 45 81 58 115 17 42 26 56 30 45 3 -10 4 -23 2 -29z
m150 11 c-25 -19 -33 -17 -33 5 0 23 20 32 38 18 10 -7 8 -13 -5 -23z m204 11
c0 -8 -4 -12 -9 -9 -4 3 -8 9 -8 15 0 5 4 9 8 9 5 0 9 -7 9 -15z m4163 5 c8
-5 11 -10 5 -10 -5 0 -17 5 -25 10 -8 5 -10 10 -5 10 6 0 17 -5 25 -10z
m-4648 -87 c-23 -37 -53 -81 -67 -98 -19 -21 -16 -14 8 20 18 28 47 73 63 102
16 29 30 50 33 48 2 -2 -15 -35 -37 -72z m-217 51 c-24 -18 -83 -50 -73 -39
10 10 81 54 88 54 3 0 -4 -7 -15 -15z m665 -6 c0 -6 -6 -5 -15 2 -8 7 -15 14
-15 16 0 2 7 1 15 -2 8 -4 15 -11 15 -16z m890 -75 c19 -27 58 -76 87 -111 29
-34 53 -66 53 -70 0 -4 -7 1 -14 11 -7 9 -17 17 -21 17 -10 0 -23 17 -84 105
-55 81 -64 95 -58 95 2 0 19 -21 37 -47z m-1640 32 c0 -2 -10 -9 -22 -15 -22
-11 -22 -10 -4 4 21 17 26 19 26 11z m-264 -17 c-2 -14 -8 -18 -28 -18 -6 0
-3 7 8 15 23 18 23 18 20 3z m1694 -23 c0 -5 -5 -3 -10 5 -5 8 -10 20 -10 25
0 6 5 3 10 -5 5 -8 10 -19 10 -25z m-1495 -1 c-23 -18 -104 -60 -93 -49 9 10
101 64 108 64 3 0 -4 -7 -15 -15z m145 -25 c-52 -44 -217 -152 -290 -189 -59
-30 -191 -75 -600 -204 -74 -23 -153 -51 -175 -61 -21 -11 -52 -18 -68 -16
-19 2 -27 -1 -23 -8 4 -6 1 -9 -6 -6 -20 7 -183 -39 -181 -52 3 -16 -91 -43
-123 -34 -33 9 -41 4 121 60 61 21 146 46 190 55 44 10 177 48 295 86 118 37
274 87 347 109 124 39 231 87 298 135 16 11 36 19 43 18 9 -2 11 1 6 9 -4 7
-3 10 3 6 13 -8 139 77 136 92 -2 6 3 8 11 5 7 -3 19 2 26 11 7 8 15 15 19 15
3 -1 -10 -14 -29 -31z m1365 1 c3 -5 1 -10 -4 -10 -6 0 -11 5 -11 10 0 6 2 10
4 10 3 0 8 -4 11 -10z m-810 -10 c3 -6 -1 -7 -9 -4 -18 7 -21 14 -7 14 6 0 13
-4 16 -10z m670 -135 c18 -22 49 -74 70 -115 21 -41 52 -96 71 -122 18 -26 30
-50 25 -53 -13 -8 -59 58 -97 140 -19 41 -63 117 -99 170 -36 52 -65 101 -65
107 0 7 14 -10 31 -37 18 -28 46 -68 64 -90z m-615 115 c18 -12 2 -12 -25 0
-13 6 -15 9 -5 9 8 0 22 -4 30 -9z m-860 -5 c0 -6 -397 -205 -407 -204 -6 0
393 206 405 208 1 1 2 -1 2 -4z m671 -13 c-5 -10 -18 -25 -27 -33 -11 -9 -9
-2 6 19 26 35 36 42 21 14z m54 -83 c-19 -40 -38 -95 -41 -121 -4 -27 -11 -51
-16 -54 -9 -6 -6 9 14 91 10 41 69 167 75 161 2 -2 -12 -36 -32 -77z m575 36
c0 -5 -5 -3 -10 5 -5 8 -10 20 -10 25 0 6 5 3 10 -5 5 -8 10 -19 10 -25z m20
-50 c0 -5 -5 -3 -10 5 -5 8 -10 20 -10 25 0 6 5 3 10 -5 5 -8 10 -19 10 -25z
m-1060 -37 c-89 -83 -204 -175 -251 -198 -44 -23 -154 -54 -349 -100 -574
-136 -878 -248 -1148 -426 -54 -35 -103 -64 -110 -64 -16 0 -14 7 40 146 43
114 68 145 136 170 26 10 53 22 61 28 12 9 13 8 7 -3 -7 -10 -3 -12 13 -6 14
4 21 2 21 -8 0 -25 -60 -68 -134 -97 -20 -7 -24 -6 -19 5 3 8 9 13 13 10 4 -3
13 9 19 25 9 28 8 29 -8 20 -14 -7 -71 -123 -71 -144 0 -3 24 11 53 31 52 35
187 105 187 97 0 -2 17 3 38 12 20 9 55 18 77 19 22 2 74 15 115 30 41 15 90
32 108 38 17 6 32 14 32 18 0 4 12 8 28 7 15 0 90 16 166 36 77 20 144 35 149
33 5 -1 -42 -16 -104 -32 -149 -37 -272 -74 -389 -117 -105 -39 -262 -109
-257 -115 2 -2 37 12 78 31 193 88 449 164 989 291 219 52 346 119 510 273 30
28 57 51 60 51 3 0 -24 -27 -60 -61z m-1913 36 c8 -20 -6 -32 -42 -36 -38 -4
-48 27 -13 41 34 14 48 13 55 -5z m6438 -44 c14 -27 34 -54 45 -60 17 -9 50
-58 50 -75 0 -4 -15 10 -34 29 -18 20 -38 36 -45 36 -6 0 -11 6 -11 14 0 8 -6
16 -14 19 -9 4 -12 14 -9 28 5 19 3 20 -18 14 -17 -4 -20 -3 -10 3 8 6 12 19
8 31 -9 34 11 13 38 -39z m-6751 41 c3 -5 -8 -8 -24 -7 -17 0 -30 4 -30 8 0
11 48 10 54 -1z m1431 -7 c-26 -20 -55 -36 -55 -30 0 5 63 46 70 46 3 -1 -4
-8 -15 -16z m850 -70 c-44 -42 -112 -100 -152 -131 -40 -30 -71 -58 -70 -61 2
-7 -182 -201 -373 -392 -139 -140 -285 -264 -300 -255 -6 4 -9 1 -8 -5 2 -7
-28 -32 -66 -55 -39 -24 -75 -50 -82 -59 -10 -15 -12 -15 -17 3 -3 15 -1 18
11 14 11 -5 13 -3 7 7 -5 9 -4 11 3 6 7 -4 12 -3 12 3 0 5 25 22 55 37 31 14
54 29 51 31 -9 10 54 54 65 47 7 -4 9 -3 6 3 -4 6 18 28 51 49 71 47 192 163
330 314 57 63 132 139 166 169 33 30 60 58 59 62 -2 5 56 59 129 121 72 62
145 125 162 140 64 56 38 24 -39 -48z m1012 44 c-3 -8 -6 -5 -6 6 -1 11 2 17
5 13 3 -3 4 -12 1 -19z m-1947 -28 c-14 -10 -38 -29 -55 -42 -16 -13 -26 -17
-21 -10 9 15 85 72 95 72 3 -1 -5 -9 -19 -20z m1957 -12 c-3 -8 -6 -5 -6 6 -1
11 2 17 5 13 3 -3 4 -12 1 -19z m-1147 8 c0 -2 -12 -11 -27 -20 l-28 -17 24
20 c23 21 31 25 31 17z m1852 -320 c57 -55 76 -76 43 -48 -61 51 -198 190
-290 293 -28 30 -6 10 47 -45 53 -56 143 -146 200 -200z m-2482 279 c-14 -8
-29 -14 -35 -14 -5 0 1 6 15 14 14 8 30 14 35 14 6 0 -1 -6 -15 -14z m-70 -30
c-14 -8 -32 -14 -40 -14 -8 0 -1 6 15 14 40 18 57 18 25 0z m976 -22 c-8 -15
-15 -25 -16 -21 0 12 23 58 27 54 3 -2 -2 -17 -11 -33z m965 -143 c48 -76 51
-80 46 -80 -17 0 -127 199 -127 230 0 8 11 -10 23 -40 13 -30 39 -80 58 -110z
m-2041 125 c-14 -8 -29 -14 -35 -14 -5 0 1 6 15 14 14 8 30 14 35 14 6 0 -1
-6 -15 -14z m1541 -123 c12 -35 19 -65 17 -68 -7 -6 -58 167 -57 191 1 11 5 2
10 -20 5 -22 19 -68 30 -103z m-264 46 c-2 -18 -4 -6 -4 27 0 33 2 48 4 33 2
-15 2 -42 0 -60z m-262 -33 c-56 -103 -176 -255 -272 -345 -38 -36 -138 -120
-223 -187 -85 -67 -219 -174 -297 -237 -77 -62 -158 -120 -180 -126 -21 -7
-84 -34 -140 -61 -86 -40 -104 -45 -114 -33 -13 16 -5 98 16 165 4 11 2 19 -5
19 -6 0 -9 -4 -6 -9 3 -5 -1 -14 -9 -21 -8 -7 -12 -16 -9 -21 3 -5 -2 -9 -10
-9 -9 0 -16 -5 -16 -11 0 -5 6 -7 13 -3 7 4 9 3 4 -2 -5 -5 -14 -9 -20 -9 -9
0 -28 -21 -111 -126 l-18 -24 7 25 c24 82 126 220 163 220 7 0 10 5 7 10 -4 6
-1 9 6 8 7 -2 18 7 24 19 7 13 15 20 18 17 4 -4 3 -12 0 -18 -4 -6 -6 -25 -4
-42 1 -18 -1 -34 -6 -37 -4 -3 -6 -31 -5 -62 4 -53 5 -56 25 -50 12 3 29 7 37
7 8 1 18 5 21 10 3 5 12 11 20 12 28 6 74 28 93 44 11 10 16 11 11 3 -6 -10
-2 -11 16 -6 25 8 69 34 69 41 0 3 -13 -2 -30 -11 -44 -23 -48 -18 -10 10 21
15 36 21 40 15 4 -7 16 -3 31 9 13 11 19 20 14 21 -6 0 -17 -6 -25 -12 -8 -7
-6 -3 4 10 20 23 43 31 30 10 -4 -7 -3 -8 5 -4 6 4 9 11 6 16 -3 5 4 14 15 20
11 6 18 15 15 19 -2 5 3 15 13 22 15 13 16 12 3 -3 -7 -10 -10 -18 -6 -18 13
0 60 42 60 53 0 7 7 12 15 13 25 1 50 15 44 25 -3 5 -2 8 3 7 5 -2 72 49 148
112 176 145 226 190 220 200 -3 5 0 12 6 16 7 4 9 3 6 -3 -4 -6 0 -14 9 -17 9
-4 13 -2 8 5 -3 6 22 41 58 78 113 117 225 265 244 323 3 11 8 17 11 14 3 -3
-16 -44 -42 -91z m3485 81 c0 -3 -4 -8 -10 -11 -5 -3 -10 -1 -10 4 0 6 5 11
10 11 6 0 10 -2 10 -4z m-4274 -41 c-20 -15 -36 -19 -36 -10 0 5 38 23 50 24
3 0 -4 -6 -14 -14z m229 -14 c-11 -5 -40 -11 -65 -14 l-45 -6 50 14 c56 15 91
18 60 6z m751 -48 c-14 -26 -25 -45 -26 -41 0 12 43 98 48 94 2 -2 -8 -26 -22
-53z m503 -12 c0 -14 -1 -14 -6 -1 -3 8 -13 24 -22 35 -16 20 -16 20 7 1 12
-11 22 -26 21 -35z m-1408 23 c-25 -8 -61 -16 -80 -19 -20 -2 -7 4 29 14 75
22 117 26 51 5z m1985 -36 l29 -33 -32 29 c-31 28 -38 36 -30 36 2 0 16 -15
33 -32z m-2113 5 c-7 -2 -19 -2 -25 0 -7 3 -2 5 12 5 14 0 19 -2 13 -5z m-63
-13 c-34 -11 -60 -11 -35 0 11 5 29 8 40 8 16 0 15 -2 -5 -8z m422 -13 c-6 -7
-57 -28 -114 -47 -95 -31 -165 -63 -87 -39 79 24 79 17 -1 -24 -47 -24 -106
-52 -132 -62 -26 -10 -53 -24 -59 -31 -9 -11 -5 -11 17 1 28 13 121 53 234
100 58 23 78 31 95 35 6 1 17 7 25 13 8 6 -3 -7 -25 -29 -81 -81 -180 -198
-177 -209 2 -5 0 -7 -4 -2 -9 9 -45 -23 -38 -34 3 -5 -2 -6 -11 -3 -10 4 -15
2 -13 -6 2 -6 -22 -28 -52 -49 -30 -20 -55 -42 -55 -48 0 -6 -4 -15 -9 -20 -5
-5 -6 -3 -2 5 4 6 3 12 -2 12 -15 0 -33 -26 -24 -35 4 -5 1 -5 -6 -1 -7 5 -29
-10 -58 -38 -25 -25 -52 -46 -59 -46 -8 0 -37 -14 -65 -32 -29 -18 -65 -32
-84 -32 -19 -1 -31 -5 -28 -10 3 -5 -2 -7 -11 -3 -10 4 -20 0 -25 -9 -5 -8
-18 -16 -29 -17 -12 0 -20 -4 -17 -8 2 -4 0 -11 -6 -14 -6 -4 -21 -24 -35 -44
-13 -21 -46 -64 -74 -96 -28 -32 -48 -62 -45 -66 3 -5 0 -9 -6 -9 -6 0 -8 -4
-5 -10 3 -6 -1 -7 -10 -4 -13 5 -13 9 -3 23 7 9 -20 -17 -60 -57 -39 -41 -72
-68 -73 -60 0 7 -5 4 -10 -7 -7 -16 -8 -14 -4 10 3 17 32 84 64 150 32 66 62
131 66 145 35 117 119 207 272 291 84 46 115 70 215 172 68 70 121 116 128
112 13 -8 42 13 35 25 -3 5 10 18 29 29 34 22 63 29 36 10 -12 -9 -11 -9 5 -4
11 4 26 8 33 8 6 0 12 4 12 8 0 7 42 21 75 24 11 1 30 7 42 13 29 16 46 15 37
0 -6 -10 -4 -9 8 0 9 7 30 14 47 14 17 1 28 5 25 10 -3 4 2 8 12 8 12 0 14 -3
6 -13z m633 -37 c-9 -16 -18 -30 -21 -30 -2 0 2 14 11 30 9 17 18 30 21 30 2
0 -2 -13 -11 -30z m154 -214 c5 -74 6 -168 1 -216 -5 -47 -9 -95 -9 -107 -1
-13 -4 -23 -8 -23 -5 0 -8 100 -8 222 0 123 -3 255 -7 293 l-8 70 15 -54 c8
-29 19 -112 24 -185z m1441 198 c0 -2 -9 0 -20 6 -11 6 -20 13 -20 16 0 2 9 0
20 -6 11 -6 20 -13 20 -16z m-649 -1 c13 -16 12 -17 -3 -4 -17 13 -22 21 -14
21 2 0 10 -8 17 -17z m-2351 3 c0 -2 -7 -7 -16 -10 -8 -3 -12 -2 -9 4 6 10 25
14 25 6z m920 -16 c0 -5 -5 -10 -11 -10 -5 0 -7 5 -4 10 3 6 8 10 11 10 2 0 4
-4 4 -10z m-609 -25 c-18 -8 -38 -15 -45 -14 -15 1 46 28 64 28 8 0 0 -6 -19
-14z m1516 -27 c-3 -8 -6 -5 -6 6 -1 11 2 17 5 13 3 -3 4 -12 1 -19z m-1432 2
c-3 -5 -11 -10 -16 -10 -6 0 -7 5 -4 10 3 6 11 10 16 10 6 0 7 -4 4 -10z m655
0 c0 -5 -5 -10 -11 -10 -5 0 -7 5 -4 10 3 6 8 10 11 10 2 0 4 -4 4 -10z m1351
-7 c13 -16 12 -17 -3 -4 -10 7 -18 15 -18 17 0 8 8 3 21 -13z m719 -130 c0 -8
-9 0 -50 45 l-45 47 48 -45 c26 -24 47 -45 47 -47z m-631 12 c47 -65 31 -56
-20 13 -23 31 -36 52 -28 45 8 -7 30 -33 48 -58z m-1215 -17 c-4 -7 -18 -28
-31 -46 -14 -18 -61 -88 -107 -155 -73 -109 -252 -365 -262 -376 -2 -2 -6 -2
-8 0 -7 7 85 144 95 141 5 -1 9 1 10 5 3 29 12 47 54 106 27 36 52 64 56 61 5
-3 6 1 4 8 -5 12 179 268 192 268 2 0 1 -6 -3 -12z m1276 -68 c12 -16 19 -30
16 -30 -2 0 -14 14 -26 30 -12 17 -19 30 -16 30 2 0 14 -13 26 -30z m60 -80
c30 -43 18 -37 -16 7 -15 20 -23 33 -16 29 6 -3 21 -20 32 -36z m-2070 16 c0
-2 -8 -10 -17 -17 -16 -13 -17 -12 -4 4 13 16 21 21 21 13z m-64 -57 c-14 -11
-23 -26 -19 -32 3 -7 3 -9 -1 -6 -4 4 -20 -7 -37 -23 -16 -17 -32 -28 -36 -25
-6 7 97 106 111 107 5 0 -3 -9 -18 -21z m2184 -29 c12 -16 19 -30 16 -30 -2 0
-14 14 -26 30 -12 17 -19 30 -16 30 2 0 14 -13 26 -30z m285 -8 c-3 -3 -11 0
-18 7 -9 10 -8 11 6 5 10 -3 15 -9 12 -12z m-244 -49 c13 -16 12 -17 -3 -4
-17 13 -22 21 -14 21 2 0 10 -8 17 -17z m-2337 -15 c-2 -7 -20 -24 -38 -38
-19 -14 -32 -28 -30 -32 3 -4 -3 -5 -12 -1 -16 6 -16 8 4 21 11 7 33 25 47 38
29 27 37 30 29 12z m2387 -55 c13 -16 12 -17 -3 -4 -17 13 -22 21 -14 21 2 0
10 -8 17 -17z m1489 -18 c14 -19 14 -19 -2 -6 -10 7 -18 18 -18 24 0 6 1 8 3
6 1 -2 9 -13 17 -24z m-3975 -40 c36 -35 33 -79 -7 -117 -65 -61 -104 -57
-132 11 -21 54 -9 82 46 110 55 27 63 26 93 -4z m95 8 c0 -5 -4 -14 -9 -21 -7
-11 -9 -11 -14 1 -3 8 -3 18 0 21 9 8 23 7 23 -1z m3603 -23 c3 -11 1 -18 -4
-14 -5 3 -9 12 -9 20 0 20 7 17 13 -6z m-3876 -152 c-3 -8 -6 -5 -6 6 -1 11 2
17 5 13 3 -3 4 -12 1 -19z m753 -58 c-12 -16 -24 -30 -26 -30 -3 0 4 14 16 30
12 17 24 30 26 30 3 0 -4 -13 -16 -30z m-49 -63 c-10 -9 -11 -8 -5 6 3 10 9
15 12 12 3 -3 0 -11 -7 -18z m950 -19 c-11 -11 -13 -10 -7 0 4 7 2 21 -5 30
-12 15 -11 15 6 0 16 -15 17 -20 6 -30z m-982 -35 c-13 -16 -25 -30 -26 -32
-2 -2 -3 0 -3 5 0 12 37 54 47 54 4 0 -4 -12 -18 -27z m-83 -120 c-59 -87
-156 -204 -309 -371 -67 -74 -125 -139 -129 -145 -5 -9 15 -11 78 -7 46 3 84
2 84 -2 0 -5 -26 -9 -57 -9 -32 -1 -71 -5 -88 -9 -18 -5 13 -7 75 -5 l105 3
-80 -8 c-138 -14 -175 -12 -175 7 0 18 158 183 175 183 10 0 49 44 188 208 26
31 76 96 110 144 72 102 90 110 23 11z m3064 -62 c0 -5 -7 -12 -16 -15 -14 -5
-15 -4 -4 9 14 17 20 19 20 6z m-2842 -61 c-22 -30 -35 -41 -22 -17 9 16 36
47 41 47 2 0 -6 -13 -19 -30z m-52 -65 c-11 -8 -16 -15 -10 -15 5 0 0 -7 -11
-16 -11 -8 -18 -16 -15 -17 6 -2 -101 -145 -143 -191 -16 -17 2 9 38 57 37 49
68 96 69 105 2 9 9 17 17 17 8 0 13 8 11 17 -2 14 41 59 57 58 3 0 -3 -7 -13
-15z m-1339 -27 c-3 -7 -5 -2 -5 12 0 14 2 19 5 13 2 -7 2 -19 0 -25z m1144
-70 c-35 -51 -118 -134 -126 -126 -3 3 5 12 18 21 13 8 48 45 77 81 61 76 74
85 31 24z m-1123 -23 c0 -16 -2 -15 -8 5 -11 34 -11 60 0 35 5 -11 8 -29 8
-40z m113 8 c13 -16 12 -17 -3 -4 -17 13 -22 21 -14 21 2 0 10 -8 17 -17z
m-212 -97 c-8 -39 -14 -107 -13 -151 0 -67 -1 -74 -8 -41 -5 22 -10 41 -12 43
-3 4 -9 -118 -10 -224 -1 -33 -4 -56 -9 -50 -11 17 3 260 19 345 8 40 12 77 9
82 -3 5 0 30 6 56 10 38 14 43 22 29 6 -12 5 -41 -4 -89z m1076 74 c3 -5 0 -7
-8 -5 -7 3 -22 -3 -32 -15 -10 -11 -23 -20 -28 -20 -6 0 0 11 13 25 25 26 45
32 55 15z m215 -3 c0 -2 -10 -12 -22 -23 l-23 -19 19 23 c18 21 26 27 26 19z
m-203 -42 c-9 -19 -13 -21 -15 -9 -3 13 12 33 25 34 0 0 -4 -11 -10 -25z m136
-45 c-15 -22 -34 -42 -41 -45 -7 -2 4 16 25 40 46 56 53 58 16 5z m-192 -8
c16 5 26 14 23 19 -3 5 2 6 10 3 26 -10 18 -19 -26 -31 -49 -13 -64 -5 -52 28
l9 24 3 -27 c3 -25 5 -26 33 -16z m2399 35 c0 -2 -10 -12 -22 -23 l-23 -19 19
23 c18 21 26 27 26 19z m-3423 -79 c-3 -8 -6 -5 -6 6 -1 11 2 17 5 13 3 -3 4
-12 1 -19z m-60 -20 c-3 -8 -6 -5 -6 6 -1 11 2 17 5 13 3 -3 4 -12 1 -19z
m1190 -14 c-10 -10 -77 -22 -77 -14 0 5 15 11 33 13 17 2 36 5 41 5 5 1 7 -1
3 -4z m-1140 -41 c-3 -10 -5 -4 -5 12 0 17 2 24 5 18 2 -7 2 -21 0 -30z m1170
20 c-12 -12 -36 -18 -84 -19 l-68 -2 68 7 c37 4 73 13 79 19 7 7 14 12 17 12
3 0 -2 -8 -12 -17z m-167 -3 c0 -5 -2 -10 -4 -10 -3 0 -8 5 -11 10 -3 6 -1 10
4 10 6 0 11 -4 11 -10z m-1073 -72 c-2 -13 -4 -5 -4 17 -1 22 1 32 4 23 2 -10
2 -28 0 -40z m2395 -40 c-6 -6 -16 -7 -22 -3 -9 6 -9 9 1 16 17 10 34 0 21
-13z m-2405 -65 c-2 -16 -4 -3 -4 27 0 30 2 43 4 28 2 -16 2 -40 0 -55z m60
25 c-3 -8 -6 -5 -6 6 -1 11 2 17 5 13 3 -3 4 -12 1 -19z m2154 -124 c2 3 5 -4
5 -14 0 -11 -2 -20 -4 -20 -6 0 -32 69 -31 82 0 7 6 -2 13 -20 6 -18 14 -31
17 -28z m-2174 -76 c-3 -7 -5 -2 -5 12 0 14 2 19 5 13 2 -7 2 -19 0 -25z
m2086 15 c-7 -2 -19 -2 -25 0 -7 3 -2 5 12 5 14 0 19 -2 13 -5z m-2164 -179
c-7 -49 -16 -96 -20 -104 -6 -10 -7 -5 -3 14 6 26 5 27 -15 17 -11 -7 -21 -13
-21 -16 0 -2 -3 -12 -7 -22 -6 -15 -5 -16 9 -5 14 11 16 10 11 -7 -3 -12 -9
-21 -13 -21 -5 0 -12 -9 -15 -20 -3 -11 -13 -20 -21 -20 -8 0 -12 -4 -9 -10 3
-5 1 -10 -4 -10 -18 0 -13 12 43 121 30 57 58 121 61 142 13 69 15 32 4 -59z
m-159 -305 c-11 -19 -10 -21 4 -16 10 4 16 1 16 -7 0 -8 -9 -16 -20 -19 -13
-3 -20 0 -20 8 0 18 22 66 27 61 3 -2 -1 -14 -7 -27z m2027 -41 c-3 -8 -6 -5
-6 6 -1 11 2 17 5 13 3 -3 4 -12 1 -19z m-2007 -34 c0 -8 -4 -12 -10 -9 -5 3
-10 13 -10 21 0 8 5 12 10 9 6 -3 10 -13 10 -21z m-50 -31 c-7 -21 -16 -42
-21 -48 -5 -5 -3 13 6 40 8 28 15 52 15 54 0 2 3 2 6 -2 3 -3 1 -23 -6 -44z"/>
<path d="M4910 8356 c0 -2 8 -10 18 -17 15 -13 16 -12 3 4 -13 16 -21 21 -21
13z"/>
<path d="M4856 8332 c-2 -4 -1 -14 5 -22 6 -11 9 -12 9 -2 0 8 5 10 13 6 8 -5
8 -2 -2 9 -15 19 -18 20 -25 9z"/>
<path d="M4915 8290 c10 -11 20 -20 22 -20 2 0 -2 9 -9 20 -7 11 -17 20 -22
20 -5 0 -1 -9 9 -20z"/>
<path d="M4924 8225 c-3 -8 -4 -20 -2 -27 3 -7 7 -1 10 15 6 29 1 36 -8 12z"/>
<path d="M4626 8030 c-24 -29 -30 -43 -27 -62 0 -3 -14 -10 -32 -13 -56 -12
-96 -36 -117 -70 -36 -59 -21 -60 33 -2 42 45 59 57 83 57 16 0 36 -6 43 -12
11 -11 12 -8 7 14 -7 31 5 67 29 92 10 9 15 19 12 22 -2 3 -16 -9 -31 -26z"/>
<path d="M4947 7993 c-4 -3 -7 -11 -7 -17 0 -6 5 -5 12 2 6 6 9 14 7 17 -3 3
-9 2 -12 -2z"/>
<path d="M4632 7820 c0 -14 2 -19 5 -12 2 6 2 18 0 25 -3 6 -5 1 -5 -13z"/>
<path d="M5088 7517 c-33 -28 -85 -123 -74 -134 2 -2 12 17 21 42 11 28 35 61
63 86 25 21 41 39 36 39 -5 0 -26 -15 -46 -33z"/>
<path d="M5258 7213 c-8 -16 -23 -41 -33 -58 l-19 -30 25 23 c14 12 31 38 36
57 13 42 9 45 -9 8z"/>
<path d="M5166 7065 c-3 -9 -6 -22 -5 -28 0 -7 5 -1 10 12 5 13 8 26 5 28 -2
2 -6 -3 -10 -12z"/>
<path d="M5350 6907 c0 -2 15 -16 33 -33 l32 -29 -29 33 c-28 30 -36 37 -36
29z"/>
<path d="M5181 6799 c-27 -84 -60 -160 -61 -138 0 9 -7 16 -15 16 -12 0 -15
-11 -14 -41 0 -23 -4 -59 -10 -81 -6 -22 -10 -51 -10 -65 1 -21 2 -20 9 8 4
18 14 41 23 50 24 27 64 113 80 172 14 52 30 150 24 150 -2 0 -13 -32 -26 -71z"/>
<path d="M5122 6785 c0 -16 2 -22 5 -12 2 9 2 23 0 30 -3 6 -5 -1 -5 -18z"/>
<path d="M5111 6734 c0 -11 3 -14 6 -6 3 7 2 16 -1 19 -3 4 -6 -2 -5 -13z"/>
<path d="M4262 7400 c0 -19 2 -27 5 -17 2 9 2 25 0 35 -3 9 -5 1 -5 -18z"/>
<path d="M4228 7210 c-4 -46 6 -41 15 8 4 17 3 32 -2 32 -5 0 -11 -18 -13 -40z"/>
<path d="M4550 6576 c0 -2 8 -10 18 -17 15 -13 16 -12 3 4 -13 16 -21 21 -21
13z"/>
<path d="M3737 6671 c-9 -86 -8 -163 2 -179 4 -8 6 18 3 60 -2 40 0 89 5 108
6 19 7 44 3 55 -4 12 -9 -3 -13 -44z"/>
<path d="M3613 6364 c0 -7 4 -11 8 -8 4 2 9 -1 11 -8 3 -7 7 -8 11 -2 3 5 -2
15 -12 21 -14 9 -18 8 -18 -3z"/>
<path d="M3742 6055 c0 -16 2 -22 5 -12 2 9 2 23 0 30 -3 6 -5 -1 -5 -18z"/>
<path d="M3770 6071 c0 -6 4 -13 10 -16 6 -3 7 1 4 9 -7 18 -14 21 -14 7z"/>
<path d="M3872 5975 c4 -4 2 -15 -4 -24 -7 -9 -8 -13 -3 -8 4 4 17 -5 27 -20
25 -39 22 -51 -6 -24 -23 21 -25 22 -29 4 -3 -10 -5 -2 -6 17 -1 30 -3 32 -12
16 -8 -13 -8 -25 0 -43 11 -24 13 -24 24 -8 12 15 14 15 26 1 16 -20 41 -21
41 -2 0 7 -9 25 -20 39 -11 14 -20 30 -20 35 0 6 -6 14 -12 18 -7 4 -10 4 -6
-1z"/>
<path d="M3796 5914 c-4 -14 -5 -28 -3 -31 3 -2 8 8 11 23 4 14 5 28 3 31 -3
2 -8 -8 -11 -23z"/>
<path d="M3919 5830 c27 -24 41 -25 41 -6 0 9 -7 12 -20 9 -11 -3 -20 0 -20 6
0 6 -6 11 -12 11 -7 -1 -2 -10 11 -20z"/>
<path d="M3792 5820 c0 -14 2 -19 5 -12 2 6 2 18 0 25 -3 6 -5 1 -5 -13z"/>
<path d="M3930 5800 c0 -5 5 -10 11 -10 5 0 7 5 4 10 -3 6 -8 10 -11 10 -2 0
-4 -4 -4 -10z"/>
<path d="M3701 5784 c0 -11 3 -14 6 -6 3 7 2 16 -1 19 -3 4 -6 -2 -5 -13z"/>
<path d="M3749 5707 c14 -18 51 -42 51 -33 0 3 -15 15 -32 27 -24 17 -29 18
-19 6z"/>
<path d="M5750 6090 c-9 -6 -10 -10 -3 -10 6 0 15 5 18 10 8 12 4 12 -15 0z"/>
<path d="M6267 5979 c7 -7 15 -10 18 -7 3 3 -2 9 -12 12 -14 6 -15 5 -6 -5z"/>
<path d="M5952 5970 c0 -14 2 -19 5 -12 2 6 2 18 0 25 -3 6 -5 1 -5 -13z"/>
<path d="M6133 5968 c1 -7 -4 -12 -11 -10 -8 1 -11 -2 -7 -8 5 -8 11 -8 21 1
7 6 11 15 8 20 -8 13 -14 11 -11 -3z"/>
<path d="M5758 5923 c12 -2 30 -2 40 0 9 3 -1 5 -23 4 -22 0 -30 -2 -17 -4z"/>
<path d="M5833 5923 c9 -2 23 -2 30 0 6 3 -1 5 -18 5 -16 0 -22 -2 -12 -5z"/>
<path d="M5628 5913 c17 -2 47 -2 65 0 17 2 3 4 -33 4 -36 0 -50 -2 -32 -4z"/>
<path d="M5913 5913 c9 -2 23 -2 30 0 6 3 -1 5 -18 5 -16 0 -22 -2 -12 -5z"/>
<path d="M6170 5889 c0 -5 -6 -7 -12 -3 -7 4 -10 4 -6 0 3 -4 8 -6 11 -4 3 2
15 -6 28 -17 13 -11 18 -13 12 -5 -17 19 -16 28 5 33 10 3 6 5 -10 6 -16 0
-28 -4 -28 -10z"/>
<path d="M6245 5880 c-3 -6 1 -7 9 -4 18 7 21 14 7 14 -6 0 -13 -4 -16 -10z"/>
<path d="M6296 5882 c-3 -5 1 -9 9 -9 8 0 12 4 9 9 -3 4 -7 8 -9 8 -2 0 -6 -4
-9 -8z"/>
<path d="M6257 5864 c-12 -12 -8 -20 18 -32 22 -10 23 -10 16 10 -9 24 -23 33
-34 22z"/>
<path d="M6335 5791 c-17 -7 -16 -9 9 -15 16 -4 31 -5 34 -1 3 3 -2 5 -12 5
-9 0 -14 5 -11 10 7 11 7 11 -20 1z"/>
<path d="M4210 5405 c0 -5 5 -17 10 -25 5 -8 10 -10 10 -5 0 6 -5 17 -10 25
-5 8 -10 11 -10 5z"/>
<path d="M6210 5750 c8 -5 20 -10 25 -10 6 0 3 5 -5 10 -8 5 -19 10 -25 10 -5
0 -3 -5 5 -10z"/>
<path d="M6288 5723 c7 -3 16 -2 19 1 4 3 -2 6 -13 5 -11 0 -14 -3 -6 -6z"/>
<path d="M6433 5683 c9 -2 25 -2 35 0 9 3 1 5 -18 5 -19 0 -27 -2 -17 -5z"/>
<path d="M4449 5793 c-13 -16 -12 -17 4 -4 9 7 17 15 17 17 0 8 -8 3 -21 -13z"/>
<path d="M4635 5704 c-27 -13 -45 -24 -40 -24 14 0 77 23 100 37 36 22 -7 13
-60 -13z"/>
<path d="M4353 5655 c-21 -15 -68 -86 -91 -139 -12 -26 -11 -28 2 -16 9 7 16
19 16 26 0 26 65 113 93 125 15 6 43 9 62 6 21 -3 33 -2 30 4 -10 14 -88 11
-112 -6z"/>
<path d="M4304 5545 c-10 -8 -14 -15 -8 -15 6 0 17 7 24 15 16 19 9 19 -16 0z"/>
<path d="M6655 5530 c3 -5 16 -15 28 -21 l22 -11 -22 21 c-23 22 -39 28 -28
11z"/>
<path d="M6740 5496 c0 -2 8 -10 18 -17 15 -13 16 -12 3 4 -13 16 -21 21 -21
13z"/>
<path d="M6408 5383 c7 -3 16 -2 19 1 4 3 -2 6 -13 5 -11 0 -14 -3 -6 -6z"/>
<path d="M4147 5346 c-3 -8 1 -17 9 -20 8 -3 14 1 14 9 0 20 -17 28 -23 11z"/>
<path d="M4136 5302 c-3 -5 1 -15 9 -22 16 -14 20 -3 6 19 -5 8 -11 9 -15 3z"/>
<path d="M7333 5245 c0 -8 6 -16 14 -19 11 -4 11 -1 3 14 -13 24 -17 25 -17 5z"/>
<path d="M4041 5154 c0 -11 3 -14 6 -6 3 7 2 16 -1 19 -3 4 -6 -2 -5 -13z"/>
<path d="M7611 4830 c0 -8 8 -31 19 -50 25 -46 25 -27 0 25 -11 22 -19 33 -19
25z"/>
<path d="M2736 4973 c-6 -14 -5 -15 5 -6 7 7 10 15 7 18 -3 3 -9 -2 -12 -12z"/>
<path d="M7551 4814 c0 -11 3 -14 6 -6 3 7 2 16 -1 19 -3 4 -6 -2 -5 -13z"/>
<path d="M7558 4784 c-4 -4 1 -19 11 -33 10 -14 21 -33 24 -41 4 -12 6 -12 6
2 1 9 -4 20 -9 23 -6 4 -8 10 -5 14 6 11 -19 44 -27 35z"/>
<path d="M7746 4773 c-6 -14 -5 -15 5 -6 7 7 10 15 7 18 -3 3 -9 -2 -12 -12z"/>
<path d="M7790 4724 c0 -8 5 -12 10 -9 6 3 10 10 10 16 0 5 -4 9 -10 9 -5 0
-10 -7 -10 -16z"/>
<path d="M7765 4699 c-4 -6 -5 -12 -2 -15 2 -3 7 2 10 11 7 17 1 20 -8 4z"/>
<path d="M7682 4560 c0 -14 2 -19 5 -12 2 6 2 18 0 25 -3 6 -5 1 -5 -13z"/>
<path d="M7830 4554 c0 -8 5 -12 10 -9 6 3 10 10 10 16 0 5 -4 9 -10 9 -5 0
-10 -7 -10 -16z"/>
<path d="M7822 4364 c17 -17 38 -12 38 9 0 8 -3 8 -9 -2 -6 -9 -11 -10 -15 -2
-4 6 -12 11 -19 11 -7 0 -5 -7 5 -16z"/>
<path d="M4061 4220 c15 -45 24 -54 15 -15 -4 17 -12 34 -17 40 -5 5 -4 -6 2
-25z"/>
<path d="M3842 4195 c0 -16 2 -22 5 -12 2 9 2 23 0 30 -3 6 -5 -1 -5 -18z"/>
<path d="M3817 4173 c-4 -3 -7 -22 -6 -42 l1 -36 9 39 c9 39 8 52 -4 39z"/>
<path d="M3841 4144 c0 -11 3 -14 6 -6 3 7 2 16 -1 19 -3 4 -6 -2 -5 -13z"/>
<path d="M3886 4115 c-9 -26 -7 -32 5 -12 6 10 9 21 6 23 -2 3 -7 -2 -11 -11z"/>
<path d="M3942 4073 c-15 -48 -8 -55 8 -8 7 20 10 38 8 41 -3 2 -10 -13 -16
-33z"/>
<path d="M3876 3983 c11 -10 23 -25 26 -33 3 -11 6 -10 11 3 5 12 -2 21 -26
32 -31 16 -32 16 -11 -2z"/>
<path d="M4140 3976 c0 -2 8 -10 18 -17 15 -13 16 -12 3 4 -13 16 -21 21 -21
13z"/>
<path d="M3940 3949 c-13 -8 -12 -9 2 -7 9 2 16 -1 15 -7 -1 -5 -6 -9 -10 -7
-5 1 -6 -2 -2 -7 6 -11 35 -4 35 9 0 17 -26 29 -40 19z"/>
<path d="M4130 3886 c0 -2 7 -7 16 -10 8 -3 12 -2 9 4 -6 10 -25 14 -25 6z"/>
<path d="M4173 3815 c0 -8 4 -12 9 -9 5 3 6 10 3 15 -9 13 -12 11 -12 -6z"/>
<path d="M4040 3804 c0 -8 5 -12 10 -9 6 4 8 11 5 16 -9 14 -15 11 -15 -7z"/>
<path d="M4166 3773 c-6 -14 -5 -15 5 -6 7 7 10 15 7 18 -3 3 -9 -2 -12 -12z"/>
<path d="M4100 3710 c0 -5 5 -10 11 -10 5 0 7 5 4 10 -3 6 -8 10 -11 10 -2 0
-4 -4 -4 -10z"/>
<path d="M7900 4290 c-8 -5 -12 -12 -9 -15 4 -3 12 1 19 10 14 17 11 19 -10 5z"/>
<path d="M8065 4030 c-3 -6 1 -7 9 -4 18 7 21 14 7 14 -6 0 -13 -4 -16 -10z"/>
<path d="M8530 3740 c25 -8 117 -13 109 -6 -2 2 -33 6 -69 9 -39 3 -55 2 -40
-3z"/>
<path d="M3285 3727 c-33 -13 -69 -29 -80 -36 l-20 -13 20 8 c78 28 135 51
141 57 10 10 7 9 -61 -16z"/>
<path d="M3900 3791 c5 -11 15 -23 20 -26 6 -4 8 -10 5 -14 -2 -5 2 -17 10
-27 13 -18 13 -17 11 8 -2 14 -10 34 -20 43 -9 9 -16 21 -16 26 0 5 -5 9 -10
9 -7 0 -7 -6 0 -19z"/>
<path d="M4148 3663 c7 -3 16 -2 19 1 4 3 -2 6 -13 5 -11 0 -14 -3 -6 -6z"/>
<path d="M4240 3615 c0 -8 4 -15 10 -15 5 0 7 7 4 15 -4 8 -8 15 -10 15 -2 0
-4 -7 -4 -15z"/>
<path d="M8336 3561 c-3 -5 1 -11 9 -14 9 -4 12 -1 8 9 -6 16 -10 17 -17 5z"/>
<path d="M4197 3493 c-11 -10 -8 -20 8 -27 10 -4 15 1 15 14 0 20 -11 26 -23
13z"/>
<path d="M2175 2885 l-30 -14 30 6 c17 3 37 9 45 14 27 15 -11 10 -45 -6z"/>
<path d="M1955 2782 c-14 -10 -15 -44 -1 -39 6 2 11 8 11 13 0 5 4 15 8 22 9
13 -2 16 -18 4z"/>
<path d="M1986 2775 c-3 -8 -3 -15 0 -15 3 0 12 7 20 15 13 13 13 15 1 15 -8
0 -17 -7 -21 -15z"/>
<path d="M1912 2609 c-13 -5 -40 -21 -60 -36 -44 -34 -91 -77 -77 -72 18 7
129 69 149 84 25 19 17 35 -12 24z"/>
<path d="M3519 2713 l-34 -38 38 34 c20 19 37 36 37 38 0 8 -8 0 -41 -34z"/>
<path d="M2551 2074 c0 -11 3 -14 6 -6 3 7 2 16 -1 19 -3 4 -6 -2 -5 -13z"/>
<path d="M2530 2041 c0 -6 5 -13 10 -16 6 -3 10 1 10 9 0 9 -4 16 -10 16 -5 0
-10 -4 -10 -9z"/>
<path d="M2895 2779 c-11 -17 1 -21 15 -4 8 9 8 15 2 15 -6 0 -14 -5 -17 -11z"/>
<path d="M3016 2722 l-19 -27 24 22 c12 12 21 24 18 27 -2 2 -13 -8 -23 -22z"/>
<path d="M2493 2443 c-3 -10 -8 -21 -10 -26 -3 -4 12 0 32 10 30 14 33 18 18
24 -28 12 -33 10 -40 -8z"/>
<path d="M2749 2419 l-24 -20 28 17 c15 9 27 18 27 20 0 8 -8 4 -31 -17z"/>
<path d="M2387 2363 c-12 -11 -8 -45 5 -41 17 6 30 48 14 48 -7 0 -16 -3 -19
-7z"/>
<path d="M2251 2140 c-1 -14 -4 -36 -6 -50 l-6 -25 11 25 c6 13 9 36 7 50 l-4
25 -2 -25z"/>
<path d="M2724 2281 c6 -9 0 -11 -20 -9 -24 3 -31 -3 -53 -44 -23 -43 -24 -48
-8 -71 19 -29 59 -27 95 6 12 11 22 16 22 11 1 -22 20 24 20 47 0 24 -16 45
-49 64 -10 6 -12 4 -7 -4z m36 -30 c5 -11 9 -30 9 -43 -2 -22 -2 -22 -6 2 -3
14 -12 33 -20 43 -10 10 -11 17 -5 17 6 0 16 -9 22 -19z m-34 -13 c5 -7 3 -8
-5 -4 -19 12 -52 -24 -46 -48 5 -17 3 -16 -9 4 -14 23 -13 26 7 42 26 21 43
23 53 6z"/>
</g>
</svg>
